<?xml version="1.0" encoding="utf-8"?>
<!-- Generator: Adobe Illustrator 16.0.0, SVG Export Plug-In . SVG Version: 6.00 Build 0)  -->
<!DOCTYPE svg PUBLIC "-//W3C//DTD SVG 1.0//EN" "http://www.w3.org/TR/2001/REC-SVG-20010904/DTD/svg10.dtd">
<svg version="1.0" id="Layer_9" xmlns="http://www.w3.org/2000/svg" xmlns:xlink="http://www.w3.org/1999/xlink" x="0px" y="0px"
	 width="569.929px" height="276.902px" viewBox="0 0 569.929 276.902" enable-background="new 0 0 569.929 276.902"
	 xml:space="preserve">
<g>
	<path fill="#020000" d="M284.769,170.471l-10.318-8.474l-3.143,10.22c0,0,3.423,6.264,3.592,6.096
		c0.167-0.162,5.926,0.54,5.926,0.54L284.769,170.471z"/>
	<g>
		<defs>
			<path id="XMLID_135_" d="M284.104,171.53l-10.32-8.48l-3.142,10.227c0,0,3.417,6.257,3.591,6.096
				c0.169-0.168,5.928,0.54,5.928,0.54L284.104,171.53z"/>
		</defs>
		<use xlink:href="#XMLID_135_"  overflow="visible" fill="#FFFFFF"/>
		<clipPath id="XMLID_2_">
			<use xlink:href="#XMLID_135_"  overflow="visible"/>
		</clipPath>
		<path opacity="0.3" clip-path="url(#XMLID_2_)" d="M281.024,166.375c-7.24,1.514-7.731,11.265-7.731,11.265l-4.321-7.758
			l3.866-8.516C272.838,161.366,279.817,163.906,281.024,166.375z"/>
	</g>
	<path opacity="0.2" d="M425.693,272.56c0,2.399-64.889,4.343-144.936,4.343c-80.039,0-144.923-1.943-144.923-4.343
		c0-2.397,64.884-4.341,144.923-4.341C360.804,268.219,425.693,270.162,425.693,272.56z"/>
	<ellipse opacity="0.2" cx="70.313" cy="259.991" rx="70.313" ry="4.341"/>
	<ellipse opacity="0.2" cx="499.617" cy="272.56" rx="70.313" ry="4.343"/>
	<g>
		<path d="M201.271,172.414l-15.053,0.989c-5.899,0.596-10.795,7.169-10.795,15.018c0,8.233,5.688,15.156,12.001,15.156
			l15.692-1.936L201.271,172.414z"/>
		<g>
			<defs>
				<path id="XMLID_102_" d="M200.781,173.403l-14.093,0.863v0.063c-5.521,0.561-9.875,6.551-9.875,13.944
					c0,7.757,4.791,14.042,10.696,14.042l15.229-1.585L200.781,173.403z"/>
			</defs>
			<use xlink:href="#XMLID_102_"  overflow="visible" fill="#960909"/>
			<clipPath id="XMLID_3_">
				<use xlink:href="#XMLID_102_"  overflow="visible"/>
			</clipPath>
			<path clip-path="url(#XMLID_3_)" fill="#EF2A25" d="M186.688,174.266c1.683-0.112,3.171,0.309,4.455,1.129
				c6.467,4.146,7.617,18.418,2.208,24.324c-1.465,1.6-3.401,2.588-5.843,2.596c-14.569,0.07-14.899,1.592-14.899,1.592
				l-3.366-33.885C169.244,170.022,175.5,175.045,186.688,174.266z"/>
			<path clip-path="url(#XMLID_3_)" d="M191.143,175.395c10.865,7.589,4.7,23.539,2.208,24.324
				C195.316,197.229,198.353,183.602,191.143,175.395z"/>
			<path clip-path="url(#XMLID_3_)" fill="#FFFFFF" d="M200.457,175.241c0,0-8.725,0.428-13.678,0.758
				c-5.015,0.33-13.635,15.409-1.185,27.579c-1.011,6.58-8.235,4.363-8.235,4.363l-3.528-39.202l26.977,2.546L200.457,175.241z"/>
		</g>
	</g>
	<path d="M202.997,193l2.833,10.578c0,0-11.286,12.241-19.211,19.889c-37.402,15.509-55.428-10.806-55.428-10.806
		s-0.33-1.178,6.538,0.969c-22.053-19.774,22.158-69.42-4.595-78.553c18.848-9.147,29.516,6.902,29.516,6.902
		s0.625-2.484,0.695-5.366c19.508,14.176,1.635,56.639,22.173,61.354c10.999,1.354,17.22-4.111,17.22-4.111"/>
	<g>
		<defs>
			<path id="XMLID_93_" d="M203.811,194.844l1.248,7.331c0,0-9.672,10.051-17.599,17.705c-31.669,16.199-50.622-5.115-50.622-5.115
				s0,0,6.867,2.147c-28.226-23.912,20.181-72.379-6.573-81.52c17.747-5.324,27.174,12.689,27.174,12.689s1.066-3.872,0.758-6.502
				c13.144,13.742,1.207,51.968,16.456,56.724C196.761,203.065,203.811,194.844,203.811,194.844z"/>
		</defs>
		<use xlink:href="#XMLID_93_"  overflow="visible" fill="#FFFFFF"/>
		<clipPath id="XMLID_4_">
			<use xlink:href="#XMLID_93_"  overflow="visible"/>
		</clipPath>
		<path clip-path="url(#XMLID_4_)" d="M137.097,138.534c11.623,0.505,20.453,15.775,20.166,38.425
			c1.179-2.37,1.978-5.583,2.596-8.761c5.618,7.933-4.083,29.613,8.052,39.567c11.742,9.644,22.839,0.673,29.959,1.921
			c23.876,4.174-8.538,21.566-8.538,21.566l-55.981,1.081c0,0-17.711-37.075-17.57-37.489
			C115.927,194.423,125.474,138.036,137.097,138.534z"/>
		<path clip-path="url(#XMLID_4_)" fill="#FFFFFF" d="M179.205,224.077c-6.573,17.466-47.04,8.256-47.04,8.256l-9.553-53.178
			c0,0,27.629-68.215,16.946-14.189C128.875,218.988,151.371,228.601,179.205,224.077z"/>
	</g>
	<g>
		<defs>
			<path id="XMLID_100_" d="M202.261,203.872c0,0-5.359-42.639-1.221-46.679c4.139-4.041,22.643-5.577,22.643-5.577l-2.434,53.813
				l-16.19-3.254"/>
		</defs>
		<use xlink:href="#XMLID_100_"  overflow="visible"/>
		<clipPath id="XMLID_5_">
			<use xlink:href="#XMLID_100_"  overflow="visible"/>
		</clipPath>
	</g>
	<g>
		<defs>
			<path id="XMLID_101_" d="M203.417,203.907c0,0-5.064-41.636-1.15-45.578c3.915-3.949,21.415-5.444,21.415-5.444l-2.3,52.544
				l-15.313-3.178"/>
		</defs>
		<use xlink:href="#XMLID_101_"  overflow="visible" fill="#3F3B3B"/>
		<clipPath id="XMLID_6_">
			<use xlink:href="#XMLID_101_"  overflow="visible"/>
		</clipPath>
		<path clip-path="url(#XMLID_6_)" fill="#6D6868" d="M201.342,156.926c0,0,5.85-2.062,6.229,5.746
			c0.371,7.807,1.901,39.58,1.901,39.58h-9.083l-0.674-43.354L201.342,156.926z"/>
		<path clip-path="url(#XMLID_6_)" fill="#FFFFFF" d="M222.833,154.197c0,0-18.518,2.014-20.482,6.004
			c-1.963,3.992,1.572,44.61,1.572,44.61l-11.728-47.135l30.918-8.101L222.833,154.197z"/>
	</g>
	<g>
		<defs>
			<path id="XMLID_112_" d="M232.681,247.799l4.111,3.915l2.021,5.345l0.105,3.282l-0.765,3.318l-4.629,6.896
				c0,0,2.919-0.323,3.108-0.393c0.127-0.057,2.329-1.024,3.885-1.909c0.737-0.421,1.283-1.662,1.283-1.662l2.035-3.927l0.183-6.188
				l-2.511-6.18l-4.903-2.869L232.681,247.799z"/>
		</defs>
		<use xlink:href="#XMLID_112_"  overflow="visible" fill="#211D1D"/>
		<clipPath id="XMLID_7_">
			<use xlink:href="#XMLID_112_"  overflow="visible"/>
		</clipPath>
		<path clip-path="url(#XMLID_7_)" fill="#777171" d="M233.523,268.954c-2.399,1.333-1.74,1.635-1.74,1.635l6.151,0.281
			c0,0,6.153-5.464,2.757-3.767c-3.395,1.697-6.931,1.479-6.931,1.479"/>
	</g>
	<g>
		<defs>
			<path id="XMLID_111_" d="M238.917,259.184c0,6.277-4.251,11.371-9.491,11.371c-5.246,0-9.498-5.093-9.498-11.371
				c0-6.285,4.251-11.385,9.498-11.385C234.667,247.799,238.917,252.899,238.917,259.184z"/>
		</defs>
		<use xlink:href="#XMLID_111_"  overflow="visible" fill="#2D2C2C"/>
		<clipPath id="XMLID_8_">
			<use xlink:href="#XMLID_111_"  overflow="visible"/>
		</clipPath>
		<polygon clip-path="url(#XMLID_8_)" fill="#3F3F3F" points="220.779,247.309 226.888,260.454 228.389,272.778 237.935,271.066 
			231.805,258.539 231.111,244.264 		"/>
	</g>
	<path fill="#4C4747" d="M243.217,254.309c-1.354-5.072-2.167-2.561-1.354,1.479c-0.288,0.175-2.329-5.289-0.997,0.316
		c-3.521-7.147-1.585-0.316-2.567-1.438c0.893,3.725,0.582,9.175-0.365,10.107c0.654-0.42-1.437,4.833,1.739-0.835
		c-1.291,4.854,3.621-4.202,1.691-0.069c-1.929,4.124,1.487,1.051,1.487,1.051l1.178-4.84
		C244.031,260.081,244.165,257.852,243.217,254.309z"/>
	<path d="M235.046,247.183c-1.704,0-3.311-0.147-4.722,0.021c1.08,0.42,1.972,0.484,2.792,1.185c0.492-0.105,0.99-0.189,1.501-0.189
		c4.946,0,8.957,4.889,8.957,10.901c0,6.011-4.011,10.886-8.957,10.886c-3.5,0-1.291-0.112-1.907-0.281
		c-1.228,0.695-4.77,0.478-6.426,0.639c2.315,1.298,6.068,0.667,8.292,0.448c5.612-0.546,9.869-4.839,9.869-11.692
		C244.444,252.24,240.678,247.183,235.046,247.183z"/>
	<path d="M232.681,259.78c0,2.413-1.486,4.37-3.317,4.37c-1.837,0-3.325-1.957-3.325-4.37s1.488-4.37,3.325-4.37
		C231.195,255.41,232.681,257.368,232.681,259.78z"/>
	<path opacity="0.2" fill="#D6D7D6" d="M232.071,259.78c0,2.034-1.052,3.682-2.343,3.682c-1.298,0-2.349-1.648-2.349-3.682
		s1.051-3.676,2.349-3.676C231.02,256.104,232.071,257.747,232.071,259.78z"/>
	<path d="M229.729,247.162c-5.639,0-10.213,5.078-10.213,11.938c0,6.853,4.574,11.911,10.213,11.911
		c5.632,0,9.189-4.973,9.189-11.827C238.917,252.331,235.36,247.162,229.729,247.162z M229.364,269.986
		c-4.944,0-8.958-4.875-8.958-10.886c0-6.012,4.013-10.901,8.958-10.901c4.946,0,8.951,4.889,8.951,10.901
		C238.315,265.111,234.31,269.986,229.364,269.986z"/>
	<g>
		<defs>
			<path id="XMLID_114_" d="M312.384,235.693l6.32,6.004l3.094,8.214l0.168,5.057l-1.17,5.093l-7.113,10.599
				c0,0,4.482-0.492,4.77-0.611c0.189-0.077,3.576-1.564,5.969-2.925c1.139-0.646,1.98-2.561,1.98-2.561l3.121-6.032l0.287-9.512
				l-3.873-9.504l-7.527-4.398L312.384,235.693z"/>
		</defs>
		<use xlink:href="#XMLID_114_"  overflow="visible" fill="#211D1D"/>
		<clipPath id="XMLID_9_">
			<use xlink:href="#XMLID_114_"  overflow="visible"/>
		</clipPath>
		<path clip-path="url(#XMLID_9_)" fill="#777171" d="M313.683,268.205c-3.697,2.041-2.682,2.51-2.682,2.51l9.455,0.429
			c0,0,9.451-8.404,4.23-5.794c-5.217,2.608-10.646,2.279-10.646,2.279"/>
	</g>
	<g>
		<defs>
			<path id="XMLID_113_" d="M321.966,253.18c0,9.651-6.531,17.48-14.588,17.48c-8.055,0-14.592-7.83-14.592-17.48
				c0-9.659,6.538-17.487,14.592-17.487C315.435,235.693,321.966,243.521,321.966,253.18z"/>
		</defs>
		<use xlink:href="#XMLID_113_"  overflow="visible" fill="#2D2C2C"/>
		<clipPath id="XMLID_10_">
			<use xlink:href="#XMLID_113_"  overflow="visible"/>
		</clipPath>
		<polygon clip-path="url(#XMLID_10_)" fill="#3F3F3F" points="294.091,234.942 303.484,255.137 305.785,274.076 320.457,271.438 
			311.031,252.197 309.972,230.256 		"/>
	</g>
	<path fill="#4C4747" d="M328.57,245.681c-2.078-7.779-3.326-3.935-2.07,2.273c-0.449,0.274-3.58-8.123-1.535,0.49
		c-5.412-10.97-2.445-0.483-3.953-2.209c1.377,5.724,0.904,14.105-0.555,15.544c1.004-0.646-2.215,7.428,2.674-1.283
		c-1.984,7.457,5.57-6.454,2.604-0.113c-2.969,6.341,2.281,1.614,2.281,1.614l1.809-7.436
		C329.824,254.562,330.027,251.131,328.57,245.681z"/>
	<path d="M316.011,234.746c-2.617,0-5.078-0.231-7.254,0.028c1.664,0.646,3.031,0.744,4.287,1.817
		c0.758-0.154,1.521-0.28,2.314-0.28c7.604,0,13.764,7.498,13.764,16.743c0,9.237-6.16,16.736-13.764,16.736
		c-5.387,0-1.979-0.182-2.924-0.435c-1.895,1.074-7.338,0.737-9.885,0.982c3.564,1.999,9.322,1.017,12.744,0.688
		c8.623-0.842,15.174-7.436,15.174-17.971C330.468,242.511,324.675,234.746,316.011,234.746z"/>
	<path d="M312.384,254.105c0,3.704-2.287,6.712-5.1,6.712c-2.82,0-5.105-3.008-5.105-6.712c0-3.711,2.285-6.727,5.105-6.727
		C310.097,247.378,312.384,250.395,312.384,254.105z"/>
	<path opacity="0.2" fill="#D6D7D6" d="M311.445,254.105c0,3.122-1.611,5.653-3.605,5.653c-1.992,0-3.605-2.531-3.605-5.653
		c0-3.128,1.613-5.661,3.605-5.661C309.833,248.444,311.445,250.977,311.445,254.105z"/>
	<path d="M307.839,234.71c-8.662,0-15.691,7.8-15.691,18.343c0,10.536,7.029,18.3,15.691,18.3s14.127-7.638,14.127-18.174
		C321.966,242.645,316.501,234.71,307.839,234.71z M307.285,269.789c-7.602,0-13.77-7.499-13.77-16.736
		c0-9.245,6.168-16.743,13.77-16.743c7.596,0,13.756,7.498,13.756,16.743C321.041,262.291,314.88,269.789,307.285,269.789z"/>
	<path fill="#FFFFFF" d="M238.987,257.647c0,0.645-0.224,1.166-0.491,1.166c-0.273,0-0.49-0.521-0.49-1.166
		c0-0.646,0.216-1.171,0.49-1.171C238.764,256.477,238.987,257.002,238.987,257.647z"/>
	<path d="M310.414,253.109c0,3.83-2.355,6.931-5.268,6.931c-2.902,0-5.266-3.101-5.266-6.931c0-3.836,2.363-6.944,5.266-6.944
		C308.058,246.166,310.414,249.273,310.414,253.109z"/>
	<path opacity="0.2" fill="#D6D7D6" d="M309.445,253.109c0,3.227-1.662,5.836-3.717,5.836c-2.063,0-3.727-2.609-3.727-5.836
		c0-3.233,1.664-5.85,3.727-5.85C307.783,247.259,309.445,249.876,309.445,253.109z"/>
	<g>
		<polygon fill="#2E3A39" points="119.182,260.299 17.431,260.299 16.638,239.79 118.627,239.79 		"/>
		<g>
			<defs>
				<rect id="XMLID_115_" x="18.385" y="241.122" width="99.197" height="18.188"/>
			</defs>
			<use xlink:href="#XMLID_115_"  overflow="visible" fill="#748987"/>
			<clipPath id="XMLID_11_">
				<use xlink:href="#XMLID_115_"  overflow="visible"/>
			</clipPath>
			<rect x="75.341" y="239.319" clip-path="url(#XMLID_11_)" fill="#9DB2AE" width="42.816" height="23.603"/>
			<path clip-path="url(#XMLID_11_)" fill="#FFFFFF" d="M73.827,239.964c2.357,10.22-0.224,21.275-0.224,21.275l3.198-0.393
				c0,0-2.525-17.515-0.448-20.518C78.428,237.327,71.47,229.751,73.827,239.964z"/>
			<polyline clip-path="url(#XMLID_11_)" fill="#FFFFFF" points="15.41,242.805 15.86,242.799 120.22,241.943 121.209,238.274 
				13.313,235.321 			"/>
			<path opacity="0.9" clip-path="url(#XMLID_11_)" fill="#99ADAA" d="M25.589,235.475c51.611,29.594-17.958,37.598,10.023,27.687
				c-23.646,8.381,35.914,0.448,35.914,0.448s-28.878-13.167-10.921-26.942c17.957-13.762-21.099-4.938-35.016-1.494"/>
		</g>
		<circle fill="#3F4F4B" cx="112.181" cy="256.273" r="1.375"/>
		<circle fill="#3F4F4B" cx="105.812" cy="256.273" r="1.375"/>
	</g>
	<g>
		<polygon fill="#2E3A39" points="116.762,240.967 15.011,240.967 14.218,220.468 116.208,220.468 		"/>
		<g>
			<defs>
				<rect id="XMLID_116_" x="15.965" y="221.801" width="99.198" height="18.178"/>
			</defs>
			<use xlink:href="#XMLID_116_"  overflow="visible" fill="#748987"/>
			<clipPath id="XMLID_12_">
				<use xlink:href="#XMLID_116_"  overflow="visible"/>
			</clipPath>
			<rect x="72.922" y="219.998" clip-path="url(#XMLID_12_)" fill="#9DB2AE" width="42.816" height="23.593"/>
			<path clip-path="url(#XMLID_12_)" fill="#FFFFFF" d="M71.406,220.644c2.357,10.209-0.224,21.264-0.224,21.264l3.199-0.393
				c0,0-2.525-17.508-0.449-20.506C76.008,218.006,69.05,210.43,71.406,220.644z"/>
			<polyline clip-path="url(#XMLID_12_)" fill="#FFFFFF" points="12.991,223.481 13.439,223.474 117.8,222.618 118.789,218.952 
				10.9,216 			"/>
			<path opacity="0.9" clip-path="url(#XMLID_12_)" fill="#99ADAA" d="M23.168,216.154c51.612,29.583-17.958,37.594,10.024,27.676
				c-23.639,8.389,35.913,0.448,35.913,0.448s-32.469-13.166-14.512-26.931c17.956-13.762-17.508-4.938-31.425-1.494"/>
		</g>
		<circle fill="#3F4F4B" cx="109.761" cy="236.941" r="1.374"/>
		<circle fill="#3F4F4B" cx="103.392" cy="236.941" r="1.375"/>
	</g>
	<g>
		<polygon fill="#2E3A39" points="119.182,183.033 17.431,183.033 16.638,162.53 118.627,162.53 		"/>
		<g>
			<defs>
				<rect id="XMLID_120_" x="18.385" y="163.863" width="99.197" height="18.182"/>
			</defs>
			<use xlink:href="#XMLID_120_"  overflow="visible" fill="#748987"/>
			<clipPath id="XMLID_13_">
				<use xlink:href="#XMLID_120_"  overflow="visible"/>
			</clipPath>
			<rect x="75.341" y="162.061" clip-path="url(#XMLID_13_)" fill="#9DB2AE" width="42.816" height="23.596"/>
			<path clip-path="url(#XMLID_13_)" fill="#FFFFFF" d="M73.827,162.706c2.357,10.214-0.224,21.268-0.224,21.268l3.198-0.393
				c0,0-2.525-17.508-0.448-20.511C78.428,160.069,71.47,152.493,73.827,162.706z"/>
			<polyline clip-path="url(#XMLID_13_)" fill="#FFFFFF" points="15.41,165.547 15.86,165.54 120.22,164.684 121.209,161.016 
				13.313,158.063 			"/>
			<path opacity="0.9" clip-path="url(#XMLID_13_)" fill="#99ADAA" d="M25.589,158.217c51.611,29.586-17.958,37.588,10.023,27.679
				c-23.646,8.38,35.914,0.448,35.914,0.448s-32.47-13.166-14.513-26.935c17.957-13.762-17.507-4.938-31.424-1.495"/>
		</g>
		<circle fill="#3F4F4B" cx="112.181" cy="179.008" r="1.375"/>
		<circle fill="#3F4F4B" cx="105.812" cy="179.008" r="1.375"/>
	</g>
	<g>
		<polygon fill="#2E3A39" points="116.762,163.709 15.011,163.709 14.218,143.206 116.208,143.206 		"/>
		<g>
			<defs>
				<rect id="XMLID_119_" x="15.965" y="144.539" width="99.198" height="18.182"/>
			</defs>
			<use xlink:href="#XMLID_119_"  overflow="visible" fill="#748987"/>
			<clipPath id="XMLID_14_">
				<use xlink:href="#XMLID_119_"  overflow="visible"/>
			</clipPath>
			<rect x="72.922" y="142.736" clip-path="url(#XMLID_14_)" fill="#9DB2AE" width="42.816" height="23.596"/>
			<path clip-path="url(#XMLID_14_)" fill="#FFFFFF" d="M71.406,143.381c2.357,10.213-0.224,21.268-0.224,21.268l3.199-0.393
				c0,0-2.525-17.508-0.449-20.51C76.008,140.744,69.05,133.169,71.406,143.381z"/>
			<polyline clip-path="url(#XMLID_14_)" fill="#FFFFFF" points="12.991,146.222 13.439,146.215 117.8,145.359 118.789,141.691 
				10.9,138.738 			"/>
			<path opacity="0.9" clip-path="url(#XMLID_14_)" fill="#99ADAA" d="M19.577,138.892c51.612,29.587-28.731,37.59-0.75,27.679
				c-23.639,8.382,50.279,0.449,50.279,0.449s-32.469-13.167-14.512-26.936c17.956-13.762-31.874-4.938-45.79-1.494"/>
		</g>
		<circle fill="#3F4F4B" cx="109.761" cy="159.683" r="1.374"/>
		<circle fill="#3F4F4B" cx="103.392" cy="159.683" r="1.375"/>
	</g>
	<g>
		<polygon fill="#2E3A39" points="119.182,144.798 17.431,144.798 16.638,124.296 118.627,124.296 		"/>
		<g>
			<defs>
				<rect id="XMLID_122_" x="18.385" y="125.628" width="99.197" height="18.181"/>
			</defs>
			<use xlink:href="#XMLID_122_"  overflow="visible" fill="#748987"/>
			<clipPath id="XMLID_15_">
				<use xlink:href="#XMLID_122_"  overflow="visible"/>
			</clipPath>
			<rect x="75.341" y="123.826" clip-path="url(#XMLID_15_)" fill="#9DB2AE" width="42.816" height="23.596"/>
			<path clip-path="url(#XMLID_15_)" fill="#FFFFFF" d="M73.827,124.471c2.357,10.212-0.224,21.268-0.224,21.268l3.198-0.393
				c0,0-2.525-17.508-0.448-20.51C78.428,121.833,71.47,114.257,73.827,124.471z"/>
			<polyline clip-path="url(#XMLID_15_)" fill="#FFFFFF" points="15.41,127.312 15.86,127.305 120.22,126.449 121.209,122.78 
				13.313,119.827 			"/>
			<path opacity="0.9" clip-path="url(#XMLID_15_)" fill="#99ADAA" d="M25.589,119.981C77.2,149.568,7.631,157.572,35.612,147.66
				c-23.646,8.382,35.914,0.449,35.914,0.449s-32.47-13.166-14.513-26.935c17.957-13.763-17.507-4.938-31.424-1.494"/>
		</g>
		<circle fill="#3F4F4B" cx="112.181" cy="140.772" r="1.375"/>
		<circle fill="#3F4F4B" cx="105.812" cy="140.772" r="1.375"/>
	</g>
	<g>
		<polygon fill="#2E3A39" points="116.762,125.474 15.011,125.474 14.218,104.971 116.208,104.971 		"/>
		<g>
			<defs>
				<rect id="XMLID_121_" x="15.965" y="106.303" width="99.198" height="18.181"/>
			</defs>
			<use xlink:href="#XMLID_121_"  overflow="visible" fill="#748987"/>
			<clipPath id="XMLID_16_">
				<use xlink:href="#XMLID_121_"  overflow="visible"/>
			</clipPath>
			<rect x="72.922" y="104.501" clip-path="url(#XMLID_16_)" fill="#9DB2AE" width="42.816" height="23.596"/>
			<path clip-path="url(#XMLID_16_)" fill="#FFFFFF" d="M71.406,105.146c2.357,10.212-0.224,21.267-0.224,21.267l3.199-0.393
				c0,0-2.525-17.508-0.449-20.51C76.008,102.508,69.05,94.933,71.406,105.146z"/>
			<polyline clip-path="url(#XMLID_16_)" fill="#FFFFFF" points="12.991,107.987 13.439,107.979 117.8,107.124 118.789,103.456 
				10.9,100.502 			"/>
			<path opacity="0.9" clip-path="url(#XMLID_16_)" fill="#99ADAA" d="M15.986,100.656c51.612,29.587-17.957,37.591,10.024,27.679
				c-23.639,8.382,43.096,0.449,43.096,0.449s-32.469-13.166-14.512-26.936c17.956-13.762-17.508-4.938-31.425-1.494"/>
		</g>
		<circle fill="#3F4F4B" cx="109.761" cy="121.447" r="1.374"/>
		<circle fill="#3F4F4B" cx="103.392" cy="121.447" r="1.375"/>
	</g>
	<g>
		<polygon fill="#2E3A39" points="116.762,105.623 15.011,105.623 14.218,85.119 116.208,85.119 		"/>
		<g>
			<defs>
				<rect id="XMLID_123_" x="15.965" y="86.452" width="99.198" height="18.181"/>
			</defs>
			<use xlink:href="#XMLID_123_"  overflow="visible" fill="#748987"/>
			<clipPath id="XMLID_17_">
				<use xlink:href="#XMLID_123_"  overflow="visible"/>
			</clipPath>
			<rect x="72.922" y="84.65" clip-path="url(#XMLID_17_)" fill="#9DB2AE" width="42.816" height="23.597"/>
			<path clip-path="url(#XMLID_17_)" fill="#FFFFFF" d="M71.406,85.295c2.357,10.213-0.224,21.268-0.224,21.268l3.199-0.393
				c0,0-2.525-17.508-0.449-20.51C76.008,82.658,69.05,75.082,71.406,85.295z"/>
			<polyline clip-path="url(#XMLID_17_)" fill="#FFFFFF" points="12.991,88.136 13.439,88.129 117.8,87.273 118.789,83.604 
				10.9,80.652 			"/>
			<path opacity="0.9" clip-path="url(#XMLID_17_)" fill="#99ADAA" d="M23.168,80.806c51.612,29.587-17.958,37.59,10.024,27.679
				c-23.639,8.382,35.913,0.449,35.913,0.449S36.636,95.768,54.593,81.999c17.956-13.762-17.508-4.938-31.425-1.494"/>
		</g>
		<circle fill="#3F4F4B" cx="109.761" cy="101.596" r="1.374"/>
		<circle fill="#3F4F4B" cx="103.392" cy="101.596" r="1.375"/>
	</g>
	<g>
		<polygon fill="#2E3A39" points="552.218,271.242 450.468,271.242 449.675,250.746 551.664,250.746 		"/>
		<g>
			<defs>
				<rect id="XMLID_126_" x="451.421" y="252.071" width="99.197" height="18.181"/>
			</defs>
			<use xlink:href="#XMLID_126_"  overflow="visible" fill="#748987"/>
			<clipPath id="XMLID_18_">
				<use xlink:href="#XMLID_126_"  overflow="visible"/>
			</clipPath>
			<rect x="508.378" y="250.276" clip-path="url(#XMLID_18_)" fill="#9DB2AE" width="42.814" height="23.59"/>
			<path clip-path="url(#XMLID_18_)" fill="#FFFFFF" d="M506.863,250.914c2.357,10.212-0.225,21.268-0.225,21.268l3.199-0.394
				c0,0-2.525-17.507-0.449-20.51C511.464,248.27,504.507,240.694,506.863,250.914z"/>
			<polyline clip-path="url(#XMLID_18_)" fill="#FFFFFF" points="448.447,253.755 448.896,253.755 553.257,252.899 554.244,249.224 
				446.357,246.271 			"/>
			<path opacity="0.9" clip-path="url(#XMLID_18_)" fill="#99ADAA" d="M458.625,246.418c51.613,29.6-17.957,37.604,10.025,27.693
				c-23.639,8.375,35.91,0.449,35.91,0.449s-32.469-13.173-14.512-26.943c17.957-13.769-17.508-4.945-31.424-1.501"/>
		</g>
		<path fill="#3F4F4B" d="M546.593,267.216c0,0.757-0.617,1.375-1.377,1.375c-0.756,0-1.375-0.617-1.375-1.375
			c0-0.758,0.619-1.375,1.375-1.375C545.976,265.841,546.593,266.458,546.593,267.216z"/>
		<circle fill="#3F4F4B" cx="538.848" cy="267.216" r="1.374"/>
	</g>
	<g>
		<polygon fill="#2E3A39" points="549.804,251.917 448.046,251.917 447.261,231.414 549.244,231.414 		"/>
		<g>
			<defs>
				<rect id="XMLID_125_" x="449.001" y="232.739" width="99.197" height="18.189"/>
			</defs>
			<use xlink:href="#XMLID_125_"  overflow="visible" fill="#748987"/>
			<clipPath id="XMLID_20_">
				<use xlink:href="#XMLID_125_"  overflow="visible"/>
			</clipPath>
			<rect x="505.958" y="230.944" clip-path="url(#XMLID_20_)" fill="#9DB2AE" width="42.814" height="23.596"/>
			<path clip-path="url(#XMLID_20_)" fill="#FFFFFF" d="M504.443,231.583c2.357,10.212-0.225,21.275-0.225,21.275l3.199-0.394
				c0,0-2.525-17.515-0.449-20.517C509.042,228.945,502.085,221.373,504.443,231.583z"/>
			<polyline clip-path="url(#XMLID_20_)" fill="#FFFFFF" points="446.027,234.423 446.482,234.423 550.843,233.567 551.826,229.899 
				443.937,226.946 			"/>
			<path opacity="0.9" clip-path="url(#XMLID_20_)" fill="#99ADAA" d="M445.429,227.093c51.621,29.6-7.182,37.604,20.801,27.693
				c-23.639,8.375,35.914,0.448,35.914,0.448s-32.473-13.18-14.516-26.941c17.957-13.766-17.508-4.946-31.424-1.501"/>
		</g>
		<path fill="#3F4F4B" d="M544.173,247.883c0,0.758-0.611,1.375-1.375,1.375c-0.758,0-1.377-0.617-1.377-1.375
			c0-0.757,0.619-1.375,1.377-1.375C543.562,246.509,544.173,247.126,544.173,247.883z"/>
		<path fill="#3F4F4B" d="M537.802,247.883c0,0.758-0.607,1.375-1.373,1.375c-0.758,0-1.377-0.617-1.377-1.375
			c0-0.757,0.619-1.375,1.377-1.375C537.195,246.509,537.802,247.126,537.802,247.883z"/>
	</g>
	<g>
		<polygon fill="#2E3A39" points="549.804,232.06 448.046,232.06 447.261,211.567 549.244,211.567 		"/>
		<g>
			<defs>
				<rect id="XMLID_124_" x="449.001" y="212.892" width="99.197" height="18.178"/>
			</defs>
			<use xlink:href="#XMLID_124_"  overflow="visible" fill="#748987"/>
			<clipPath id="XMLID_21_">
				<use xlink:href="#XMLID_124_"  overflow="visible"/>
			</clipPath>
			<rect x="505.958" y="211.097" clip-path="url(#XMLID_21_)" fill="#9DB2AE" width="42.814" height="23.586"/>
			<path clip-path="url(#XMLID_21_)" fill="#FFFFFF" d="M504.443,211.735C506.8,221.948,504.218,233,504.218,233l3.199-0.394
				c0,0-2.525-17.504-0.449-20.506C509.042,209.098,502.085,201.522,504.443,211.735z"/>
			<polyline clip-path="url(#XMLID_21_)" fill="#FFFFFF" points="446.027,214.576 446.482,214.576 550.843,213.72 551.826,210.051 
				443.937,207.099 			"/>
			<path opacity="0.9" clip-path="url(#XMLID_21_)" fill="#99ADAA" d="M456.205,207.246c51.621,29.59-17.957,37.594,10.025,27.683
				c-23.639,8.375,35.914,0.449,35.914,0.449s-32.473-13.169-14.516-26.932c17.957-13.769-17.508-4.945-31.424-1.5"/>
		</g>
		<path fill="#3F4F4B" d="M544.173,228.033c0,0.758-0.611,1.375-1.375,1.375c-0.758,0-1.377-0.617-1.377-1.375
			c0-0.758,0.619-1.375,1.377-1.375C543.562,226.658,544.173,227.275,544.173,228.033z"/>
		<path fill="#3F4F4B" d="M537.802,228.033c0,0.758-0.607,1.375-1.373,1.375c-0.758,0-1.377-0.617-1.377-1.375
			c0-0.758,0.619-1.375,1.377-1.375C537.195,226.658,537.802,227.275,537.802,228.033z"/>
	</g>
	<g>
		<polygon fill="#2E3A39" points="116.762,221.85 15.011,221.85 14.218,201.347 116.208,201.347 		"/>
		<g>
			<defs>
				<rect id="XMLID_117_" x="15.965" y="202.68" width="99.198" height="18.181"/>
			</defs>
			<use xlink:href="#XMLID_117_"  overflow="visible" fill="#748987"/>
			<clipPath id="XMLID_22_">
				<use xlink:href="#XMLID_117_"  overflow="visible"/>
			</clipPath>
			<rect x="72.922" y="200.876" clip-path="url(#XMLID_22_)" fill="#9DB2AE" width="42.816" height="23.593"/>
			<path clip-path="url(#XMLID_22_)" fill="#FFFFFF" d="M71.406,201.522c2.357,10.213-0.224,21.264-0.224,21.264l3.199-0.393
				c0,0-2.525-17.504-0.449-20.507C76.008,198.885,69.05,191.309,71.406,201.522z"/>
			<polyline clip-path="url(#XMLID_22_)" fill="#FFFFFF" points="12.991,204.363 13.439,204.355 117.8,203.5 118.789,199.831 
				10.9,196.878 			"/>
			<path opacity="0.9" clip-path="url(#XMLID_22_)" fill="#99ADAA" d="M23.168,197.033c51.612,29.583-17.958,37.586,10.024,27.675
				c-23.639,8.382,43.097,0.449,43.097,0.449s-32.47-13.163-14.513-26.932c17.957-13.761-24.691-4.938-38.607-1.495"/>
		</g>
		<circle fill="#3F4F4B" cx="109.761" cy="217.824" r="1.374"/>
		<circle fill="#3F4F4B" cx="103.392" cy="217.824" r="1.375"/>
	</g>
	<g>
		<polygon fill="#2E3A39" points="116.762,202.483 15.011,202.483 14.218,181.982 116.208,181.982 		"/>
		<g>
			<defs>
				<rect id="XMLID_118_" x="15.965" y="183.315" width="99.198" height="18.179"/>
			</defs>
			<use xlink:href="#XMLID_118_"  overflow="visible" fill="#748987"/>
			<clipPath id="XMLID_23_">
				<use xlink:href="#XMLID_118_"  overflow="visible"/>
			</clipPath>
			<rect x="72.922" y="181.512" clip-path="url(#XMLID_23_)" fill="#9DB2AE" width="42.816" height="23.595"/>
			<path clip-path="url(#XMLID_23_)" fill="#FFFFFF" d="M71.406,182.157c2.357,10.211-0.224,21.266-0.224,21.266l3.199-0.394
				c0,0-2.525-17.506-0.449-20.508C76.008,179.52,69.05,171.944,71.406,182.157z"/>
			<polyline clip-path="url(#XMLID_23_)" fill="#FFFFFF" points="12.991,184.998 13.439,184.991 117.8,184.135 118.789,180.467 
				10.9,177.513 			"/>
			<path opacity="0.9" clip-path="url(#XMLID_23_)" fill="#99ADAA" d="M23.168,177.668c51.612,29.585-17.958,37.588,10.024,27.677
				c-23.639,8.382,35.913,0.449,35.913,0.449s-32.469-13.167-14.512-26.934c17.956-13.762-17.508-4.938-31.425-1.494"/>
		</g>
		<circle fill="#3F4F4B" cx="109.761" cy="198.457" r="1.374"/>
		<circle fill="#3F4F4B" cx="103.392" cy="198.457" r="1.375"/>
	</g>
	<path d="M252.211,207.54c6.858,6.706,6.242,21.741-3.178,33.722c8.606,6.839,37.946,5.008,45.094,0.091
		c-7.239-13.804-17.682-10.045-17.682-10.045s15.499-15.709-1.993-28.896C268.208,205.576,261.483,207.73,252.211,207.54z"/>
	<g>
		<defs>
			<path id="XMLID_98_" d="M252.33,204.995c12.998,12.163,4.208,28.39,0.288,35.089c7.267,5.654,31.767,4.924,38.907,0.014
				c-8.291-11.125-19.241-6.979-19.241-6.979s17.017-13.058,2.61-31.449C267.43,190.58,245.7,193.947,252.33,204.995z"/>
		</defs>
		<use xlink:href="#XMLID_98_"  overflow="visible" fill="#FFFFFF"/>
		<clipPath id="XMLID_24_">
			<use xlink:href="#XMLID_98_"  overflow="visible"/>
		</clipPath>
		<path clip-path="url(#XMLID_24_)" d="M257.365,218.56c7.148-7.085,24.204-14.625,27.817-7.695l-7.063-18.511l-25.524,4.56
			C252.595,196.914,246.164,229.667,257.365,218.56z"/>
		<g clip-path="url(#XMLID_24_)">
			<defs>
				<path id="XMLID_99_" d="M254.988,220.131c18.349-17.719,29.465-11.714,29.458-11.714l-5.197-16.68l-30.28,0.428
					C248.969,192.165,243.631,231.084,254.988,220.131z"/>
			</defs>
			<use xlink:href="#XMLID_99_"  overflow="visible" fill="#AD1C1C"/>
			<clipPath id="XMLID_25_">
				<use xlink:href="#XMLID_99_"  overflow="visible"/>
			</clipPath>
		</g>
		<path clip-path="url(#XMLID_24_)" fill="#FFFFFF" d="M277.376,206.958c3.078,12.816-4.742,25.837-4.742,25.837l11.692-6.474
			l-1.194-15.856C283.133,210.465,274.31,194.178,277.376,206.958z"/>
		<path opacity="0.3" clip-path="url(#XMLID_24_)" d="M267.17,206.607c15.558,9.007,4.412,21.222,4.412,21.222l-9.994,0.757
			l-3.717-19.7L267.17,206.607"/>
	</g>
	<path fill="#020000" d="M283.254,243.843l-1.655,0.407c-1.102-1.479-4.546-5.324-11.139-6.145
		C278.085,237.72,282.314,242.616,283.254,243.843z"/>
	<path fill="#020000" d="M289.86,242.468l-1.683,0.267c-0.974-1.571-4.089-5.689-10.585-7.05
		C285.219,235.931,289.026,241.165,289.86,242.468z"/>
	<g>
		<g>
			<defs>
				<path id="XMLID_132_" d="M229.799,144.974c-8.08,0.302-14.282,7.652-25.239,9.231c-10.773,0.652-20.657-0.757-26.822,4.552
					c14.772-4.012,15.649,12.822,31.9,13.587c16.316,0.757,34.533-4.616,34.533-4.616L236,145.135
					C236,145.135,261.756,139.327,229.799,144.974z"/>
			</defs>
			<use xlink:href="#XMLID_132_"  overflow="visible" fill="#EF2A25"/>
			<clipPath id="XMLID_26_">
				<use xlink:href="#XMLID_132_"  overflow="visible"/>
			</clipPath>
			<path clip-path="url(#XMLID_26_)" fill="#B21212" d="M223.682,149.961c-1.115-0.638-6.664,5.5-15.103,7.744
				c-7.688,2.048-14.478-1.207-23.175,4.293c-6.79,8.024,24.859,16.526,24.859,16.526l16.554-10.915l-2.246-16.898"/>
			<path clip-path="url(#XMLID_26_)" fill="#D6D4D4" d="M141.088,251.356c-1.867-0.056-1.664,2.89-0.463,2.833
				C141.824,254.133,142.961,251.412,141.088,251.356z"/>
			<path clip-path="url(#XMLID_26_)" fill="#919191" d="M142.737,250.044c-1.873-0.393-2.666,1.656-1.873,2.533
				C141.656,253.453,144.602,250.437,142.737,250.044z"/>
		</g>
		<path d="M229.771,145.612c-12.212-1.115-15.347,6.832-23.891,7.596c-12.163,1.087-24.263-3.079-29.699,7.274
			c17.592-5.801,17.361,16.477,37.451,11.932c-17.396,1.536-21.429-16.309-32.527-14.674c6.033-3.675,14.969-2.413,23.204-2.995
			c10.957-0.772,10.521-4.152,16.541-6.433C226.229,146.271,231.833,145.612,229.771,145.612z"/>
	</g>
	<path fill="#70655D" d="M171.586,254.049c0.218,7.274-12.654,2.981-9.932-2.399c-8.634,0.933-4.489-13.25,1.501-10.038
		c-1.052-7.912,15.705-2.272,11.925,4.434C181.372,247.252,174.96,256.393,171.586,254.049z"/>
	<path fill="#96887D" d="M170.647,252.737c0.14,7.324-10.579,3.002-8.096-1.894c-7.863,0.849-4.096-11.034,1.361-8.102
		c-0.961-7.211,13.313-2.287,9.877,3.816C179.513,247.659,174.272,255.06,170.647,252.737z"/>
	<path fill="#826C5B" d="M152.535,256.996c0.098-3.002,5.296-0.905,4.033,1.241c3.584-0.161,1.508,5.576-0.875,4.104
		c0.224,3.282-6.531,0.526-4.806-2.139C148.327,259.541,151.202,255.943,152.535,256.996z"/>
	<path fill="#AA9787" d="M152.859,257.647c0.125-3.023,4.228-0.996,3.085,0.955c3.263-0.148,1.382,4.271-0.785,2.924
		c0.203,2.995-5.113,0.885-3.535-1.536C149.288,259.388,151.42,256.596,152.859,257.647z"/>
	<path fill="#826C5B" d="M173.958,261.155c-1.685-0.393-3.255,2.006-1.572,2.238C174.069,263.624,175.641,261.555,173.958,261.155z"
		/>
	<path fill="#826C5B" d="M183.23,265.848c-0.042,0.82,1.669,1.088,1.614,0.301C184.773,265.356,183.272,265.034,183.23,265.848z"/>
	<path fill="#826C5B" d="M153.293,250.696c-0.042,0.814,1.67,1.08,1.613,0.295C154.836,250.206,153.335,249.869,153.293,250.696z"/>
	<g>
		<g>
			<path fill="#FFFFFF" d="M258.698,165.828c-3.535-6.25-6.481-0.905-5.261,1.487c1.213,2.399,3.92,17.487,3.92,17.487
				s2.673-3.023,4.917,2.041c2.238,5.069,6.557,1.179,4.476-2.357c-2.083-3.536-2.946-14.337-2.946-14.337
				S262.233,172.07,258.698,165.828z"/>
			<path fill="#020000" d="M261.714,187.559c0.19,0.505,0.498,0.968,0.933,1.345c1.383,1.192,3.479,1.045,4.678-0.335
				c1.018-1.171,1.06-2.861,0.204-4.075c0.217-0.217,0.42-0.442,0.624-0.673c4.146-4.776,3.627-12.009-1.149-16.147
				c-2.35-2.041-5.294-2.946-8.171-2.778c-0.147-0.68-0.504-1.319-1.073-1.81c-1.375-1.193-3.472-1.045-4.671,0.336
				c-0.918,1.06-1.045,2.546-0.421,3.718c-0.652,0.491-1.264,1.044-1.816,1.683c-4.138,4.776-3.619,12.008,1.156,16.154
				C254.777,187.376,258.376,188.21,261.714,187.559z M263.278,185.068c0.119-0.134,0.253-0.253,0.393-0.344l-2.118-3.654
				l-1.066,1.733l-1.634-5.156l-1.109,2.153l-1.956-12.184c-0.534,0.049-1.088-0.105-1.531-0.491
				c-0.848-0.737-0.94-2.021-0.203-2.869c0.737-0.849,2.021-0.94,2.869-0.204c0.848,0.736,0.94,2.021,0.204,2.869
				c-0.168,0.196-0.365,0.351-0.583,0.463l2.231,4.91l0.989-2.041l1.523,6.032l1.03-2.006l2.182,10.115
				c0.575-0.098,1.179,0.056,1.655,0.47c0.848,0.729,0.939,2.02,0.203,2.869c-0.736,0.849-2.021,0.94-2.869,0.204
				C262.641,187.2,262.549,185.917,263.278,185.068z"/>
		</g>
		<path d="M273.421,172.014c13.994,35.548-18.51,48.63-41.167,43.993c-21.36-4.37-43.567-28.631-11.82-51.407
			c-4.735-22.15,20.889-19.851,29.117-19.359C257.779,145.724,281.759,153.784,273.421,172.014z"/>
		<g>
			<defs>
				<path id="XMLID_19_" d="M271.4,172.288c14.034,33.941-17.767,45.711-38.487,41.481c-20.721-4.23-41.399-26.05-10.199-48.86
					c-4.827-20.7,18.624-18.756,26.604-18.28C257.302,147.099,280.041,154.808,271.4,172.288z"/>
			</defs>
			<use xlink:href="#XMLID_19_"  overflow="visible" fill="#EF2A25"/>
			<clipPath id="XMLID_27_">
				<use xlink:href="#XMLID_19_"  overflow="visible"/>
			</clipPath>
			<path clip-path="url(#XMLID_27_)" fill="#FFFFFF" d="M268.839,152.858c0,0,4.728,13.222,1.613,19.64
				c7.071,13.215-3.15,38.452-3.15,38.452l15.895-4.447l-1.438-46.265L268.839,152.858z"/>
			<path clip-path="url(#XMLID_27_)" fill="#FFFFFF" d="M232.969,144.967c0,0-11.763,7.484-9.329,20.994
				c-16.42,11.679-15.34,34.643-15.34,34.643l-7.057-23.208l17.36-32.862L232.969,144.967"/>
		</g>
		<g>
			<path fill="#FFFFFF" d="M259.169,167.405c-3.326-5.871-6.097-0.849-4.954,1.403c1.144,2.251,3.697,16.428,3.697,16.428
				s2.504-2.841,4.615,1.921c2.104,4.762,6.164,1.102,4.209-2.216c-1.958-3.325-2.771-13.475-2.771-13.475
				S262.486,173.27,259.169,167.405z"/>
			<path fill="#020000" d="M262.001,187.824c0.176,0.477,0.471,0.913,0.877,1.261c1.298,1.129,3.269,0.989,4.389-0.309
				c0.954-1.1,1.003-2.691,0.19-3.835c0.211-0.197,0.406-0.407,0.589-0.625c3.9-4.489,3.409-11.286-1.079-15.179
				c-2.209-1.916-4.973-2.771-7.68-2.61c-0.133-0.639-0.471-1.234-1.003-1.698c-1.298-1.122-3.269-0.982-4.391,0.316
				c-0.863,0.996-0.982,2.392-0.399,3.493c-0.611,0.457-1.178,0.982-1.704,1.585c-3.887,4.489-3.403,11.279,1.086,15.173
				C255.479,187.656,258.859,188.442,262.001,187.824z M263.476,185.489c0.105-0.133,0.231-0.239,0.364-0.331l-1.991-3.43
				l-1.004,1.628l-1.535-4.84l-1.039,2.02l-1.838-11.455c-0.505,0.057-1.023-0.098-1.438-0.456c-0.8-0.687-0.884-1.894-0.189-2.693
				c0.687-0.8,1.893-0.883,2.694-0.196c0.798,0.694,0.883,1.9,0.189,2.7c-0.155,0.183-0.344,0.33-0.547,0.435l2.096,4.616
				l0.927-1.929l1.431,5.675l0.975-1.887l2.048,9.504c0.533-0.084,1.108,0.056,1.549,0.442c0.8,0.694,0.885,1.9,0.197,2.693
				c-0.695,0.797-1.902,0.881-2.701,0.196C262.865,187.488,262.781,186.281,263.476,185.489z"/>
		</g>
	</g>
	<polygon fill="#EF2A25" points="236.021,150.62 226.761,146.678 223.682,149.035 229.511,151.616 	"/>
	<path d="M221.775,149.183c-1.888,1.094,8.712,2.511,9.315,3.233C231.693,153.138,225.464,147.078,221.775,149.183z"/>
	<path opacity="0.3" d="M230.788,168.198c0.813,34.769,29.446,43.228,29.446,43.228l8.738-5.598L230.788,168.198"/>
	<path d="M282.146,180.011c0,0,1.395-9.238,10.788-8.481c9.391,0.751,3.424,5.535,3.424,5.535s7.055,20.656-4.981,21.554
		C279.341,199.516,282.146,180.011,282.146,180.011z"/>
	<path fill="#FFFFFF" d="M283.367,179.232c0,0,0.729-7.169,9.722-6.46c8.985,0.708,3.879,3.697,3.879,3.697
		s6.328,19.981-5.192,20.823C280.259,198.134,283.367,179.232,283.367,179.232z"/>
	<path fill="#020000" d="M287.253,178.608c0.876-0.821,4.601-11.806-3.48-11.806c-8.754-0.098-6.966,12.57-3.943,14.029
		C282.054,181.898,285.458,180.291,287.253,178.608z"/>
	<path fill="#FFFFFF" d="M285.673,178.896c1.803-1.684,4.215-11.511-2.687-10.697c-6.902,0.814-4.405,11.209-2.132,12.177
		C283.12,181.35,283.871,180.579,285.673,178.896z"/>
	<path d="M296.287,179.183c-4.909-4.623-15.073-1.803-22.713,6.299c-7.629,8.099-9.845,18.418-4.938,23.041
		c4.904,4.622,15.075,1.803,22.714-6.299C298.98,194.129,301.191,183.805,296.287,179.183z M288.452,200.084
		c-6.131,6.502-13.587,9.435-16.659,6.537c-3.074-2.896-0.596-10.515,5.541-17.017c6.131-6.5,13.587-9.433,16.66-6.536
		C297.066,185.959,294.583,193.581,288.452,200.084z"/>
	<path opacity="0.3" d="M291.784,197.278c-9.799,0.722-9.014-12.813-8.545-16.911c0.218,0.071,0.429,0.105,0.647,0.105
		c2.188,0,4.061-3.085,4.271-7.147l5.029,1.15l1.831-1.508c6.25,0.968,1.943,3.486,1.943,3.486S303.281,196.458,291.784,197.278z"/>
	<path fill="#020000" d="M297.269,186.415c1.908,1.304,7.568,5.118,2.709,10.471c-3.943,4.328-11.079,2.3-10.742-1.558
		S298.671,187.123,297.269,186.415z"/>
	<path fill="#FFFFFF" d="M297.753,187.425c1.908,1.297,5.008,5.027,1.852,8.366c-3.148,3.339-9.21,2.736-8.874-1.129
		C291.067,190.804,299.156,188.126,297.753,187.425z"/>
	<path fill="#020000" d="M297.935,179.373c1.9,1.305,7.563,5.12,2.701,10.463c-3.936,4.335-11.077,2.308-10.74-1.555
		C290.24,184.423,299.332,180.081,297.935,179.373z"/>
	<path fill="#FFFFFF" d="M298.421,180.375c1.906,1.304,4.998,5.029,1.85,8.368c-3.15,3.344-9.217,2.734-8.88-1.122
		C291.728,183.763,299.814,181.084,298.421,180.375z"/>
	<path fill="#020000" d="M292.935,171.53c2.629,0.281,10.663,0.625,8.338,9.694c-1.879,7.352-10.632,9.173-12.358,4.489
		c-0.75-2.026-0.617-6.326,0.645-9.069c0.539-1.179-1.276-3.15,2.273-2.364C292.794,172.147,293.65,171.53,292.935,171.53z"/>
	<path fill="#FFFFFF" d="M292.598,172.709c2.75,0.392,9.265,1.725,7.695,7.456c-1.57,5.738-8.404,8.591-10.137,3.9
		C288.43,179.379,291.362,174.434,292.598,172.709z"/>
	<path fill="#4F2900" d="M277.13,96.434c0,0,18-5.717,17.494-9.428c-0.506-3.703-11.055-4.152-11.055-4.152l-19.61,5.106
		L277.13,96.434z"/>
	<g>
		<defs>
			<path id="XMLID_134_" d="M291.483,86.221c2.299,3.535-16.387,9.372-16.387,9.372l-8.079-6.902l20.024-4.546
				C287.042,84.145,289.729,83.212,291.483,86.221z"/>
		</defs>
		<use xlink:href="#XMLID_134_"  overflow="visible" fill="#7C4B1A"/>
		<clipPath id="XMLID_28_">
			<use xlink:href="#XMLID_134_"  overflow="visible"/>
		</clipPath>
		<polyline clip-path="url(#XMLID_28_)" fill="#A56C28" points="289.552,85.155 273.686,94.386 275.504,97.282 296.105,89.406 
			289.552,85.155 		"/>
	</g>
	<path fill="#EF2A25" d="M238.974,149.575"/>
	<path d="M240.965,151.343c4.575,11.819,24.692,16.778,25.764,4.889C267.794,144.343,236.393,139.517,240.965,151.343z"/>
	<path fill="#FFFFFF" d="M242.095,151.202c4.166,10.9,22.531,15.467,23.511,4.503C266.589,144.749,237.922,140.316,242.095,151.202z
		"/>
	<path opacity="0.3" d="M266.028,150.705c-4.959-5.261-11.588-11.047-17.318-14.541c-12.578-11.314-28.415-20.174-21.997,1.606
		c2.672,9.062,8.634,6.846,12.851,13.096C250.183,170.759,277.179,162.538,266.028,150.705z"/>
	<path d="M255.437,87.118c-10.108-6.039-7.471-19.493,5.64-16.729c15.486,3.254,12.702,17.213,0.028,17.332
		C249.201,87.834,263.3,91.818,255.437,87.118z"/>
	<path fill="#FFFFFF" d="M255.73,87c-8.094-5.043-6.298-17.22,5.422-14.976c11.727,2.237,11.004,11.461,1.663,15.972
		C259.428,88.515,256.917,87.736,255.73,87z"/>
	<path d="M256.749,87.315c-6.587-3.963-5.359-12.963,3.857-10.83c9.209,2.139,8.599,11.51,0.289,11.756
		C259.778,88.269,258.522,88.388,256.749,87.315z"/>
	<path d="M281.838,122.872c-0.428-8.993-0.036-23.583-8.658-31.88c-16.642-13.833-46.783-9.743-58.756,2.223
		c-11.974,11.967-6.152,18.847-6.152,18.847l15.348,21.317l50.012,9.505C273.631,142.883,282.265,131.864,281.838,122.872z"/>
	<path d="M281.003,122.843c-0.421-9-0.78-23.323-9.408-31.628c-16.635-13.826-46.012-7.919-57.979,4.047
		c-11.974,11.967-3.941,21.394-3.941,21.394l12.808,16.68l50.011,9.505C272.494,142.841,281.43,131.835,281.003,122.843z"/>
	<path fill="#474747" d="M237.178,126.344c-2.168-5.255-4.257-24.719,6.7-24.951c12.008-0.259,12.071,21.787,12.071,21.787
		s4.77,0.723,4.511,7.667C260.157,138.752,239.339,131.598,237.178,126.344z"/>
	<path fill="#474747" d="M279.178,125.93c0,0,2.849-29.194-6.178-27.272c-8.536,1.817-5.655,23.674-5.655,23.674l8.581,3.479
		L279.178,125.93z"/>
	<path fill="#FFFFFF" d="M278.68,125.909l-3.26-0.126l-0.162-0.07l-1.094-0.491l-5.261-2.364c0,0-0.687-3.879-0.863-8.438
		c-0.042-0.968-0.056-1.971-0.035-2.975c0.098-5.148,1.122-10.282,4.636-11.194C280.919,98.104,278.68,125.909,278.68,125.909z"/>
	<path d="M276.092,124.954c4.272-0.161,7.387-20.671,20.552-9.63c-4.069-0.442-6.046,0.821-6.046,0.821s3.789,1.852,2.73,7.421
		C292.267,129.127,271.821,125.116,276.092,124.954z"/>
	<path fill="#FFFFFF" d="M276.984,125.158c4.277-0.162,6.796-16.077,16.441-10.894c-3.591,0.211-5.528,2.069-5.528,2.069
		s5.444,1.627,4.385,7.19C291.222,129.086,272.718,125.319,276.984,125.158z"/>
	<path d="M275.258,125.712l-1.094-0.491l-5.261-2.364c0,0-0.687-3.879-0.863-8.438c-0.042-0.968-0.056-1.971-0.035-2.975
		c0.729-1.108,1.669-1.844,2.734-2.006c2.854-0.435,5.549,3.339,6.013,8.424C277.033,120.963,276.421,123.839,275.258,125.712z"/>
	<path d="M274.164,125.221l-5.261-2.364c0,0-0.687-3.879-0.863-8.438c0.541-1.445,1.368-2.406,2.371-2.567
		c2.071-0.323,4.083,2.911,4.496,7.238C275.132,121.461,274.829,123.657,274.164,125.221z"/>
	<path d="M273.133,129.717c-19.366-2.672-10.816-36.854-30.757-44.415c-6.678-2.539-16.674-1.627-20.216-1.115
		c4.195-5.38,9.618-6.026,14.022-5.394c-1.95-0.702-2.974-0.505-4.441-0.926c9.695-6.762,28.36-4.356,34.287,16.512
		c3.521,14.127-3.851,33.698,17.429,29.222C308.042,118.445,292.492,132.403,273.133,129.717z"/>
	<path fill="#FFFFFF" d="M259.793,131.962c-0.443,7.898-19.656,0.4-21.689-4.84c-0.176-0.456-0.351-1.003-0.519-1.627
		c-0.1-0.366-0.197-0.744-0.288-1.15c-0.526-2.315-0.947-5.325-0.96-8.354c0-0.736,0.021-1.459,0.063-2.174v-0.007
		c0.358-5.556,2.314-10.613,7.688-10.767c10.375-0.323,11.103,20.868,11.103,20.868S260.228,124.064,259.793,131.962z"/>
	<path d="M243.469,128.434c-2.307,0.407-4.67-1.276-6.171-4.089c-0.66-2.862-1.137-6.812-0.897-10.529v-0.007
		c0.771-1.999,2.11-3.403,3.83-3.711c2.637-0.463,5.336,1.796,6.753,5.317c0.295,0.729,0.534,1.501,0.702,2.315
		c0.035,0.161,0.069,0.322,0.099,0.483C248.674,123.278,246.746,127.852,243.469,128.434z"/>
	<path d="M271,136.886c-23.09-26.192-42.73-0.078-56.198-24.565c-0.281,2.133-0.968,4.651,0.813,8.088
		c-6.691-6.005-8.368-16.393-8.368-16.393s-5.442,13.033,2.336,23.526c-12.619-1.564-11.7,12.661-11.7,12.661
		s1.109-0.568,5.064-2.497c-4.047,4.966-1.74,9.063-0.561,11.644c22.845-19.815,43.383,25.82,80.37,2.967
		c6.887-0.54,16.033-5.373,16.723-14.113C304.529,126.638,281.831,134.431,271,136.886z"/>
	<path d="M242.173,127.992c-1.664,0.295-3.354-0.723-4.587-2.497c-0.1-0.366-0.197-0.744-0.288-1.15
		c-0.526-2.315-0.947-5.325-0.96-8.354c0.629-1.62,1.746-2.75,3.148-2.988c2.182-0.378,4.419,1.459,5.598,4.35
		c0.238,0.588,0.435,1.227,0.575,1.9c0.028,0.12,0.056,0.259,0.083,0.392C246.479,123.783,244.887,127.522,242.173,127.992z"/>
	<path fill="#FFFFFF" d="M298.125,137.812c-0.125,0.786-0.309,1.536-0.553,2.245c-0.633,1.817-1.643,3.395-2.883,4.742
		c-3.362,3.661-8.391,5.668-11.982,6.271c-0.133,0.07-0.259,0.14-0.385,0.21c-37.463,20.328-56.506-23.148-79.787-3.83
		c-1.172-2.588-1.256-8.943,6.783-11.503c-5.534-0.757-10.262,2.56-10.262,2.56s0.189-1.845,1.073-3.886
		c1.431-3.296,3.977-7.568,11.952-4.608c-7.554-12.514-4.72-22.25-4.755-23.772c6.761,35.107,39.989,5.387,63.085,31.579
		C281.234,135.364,303.175,126.252,298.125,137.812z"/>
	<path fill="#D6D6D6" d="M297.572,140.057c-0.633,1.817-1.643,3.395-2.883,4.742c-5.893,3.437-17.636,4.762-19.768-0.295
		c-0.653-1.045-1.053-1.494-1.138-1.592C274.15,143.234,280.708,149.042,297.572,140.057z"/>
	<path fill="#FFFFFF" d="M273.784,129.262c-4.313-0.604-7.243-2.925-9.418-6.215c-3.998-6.053-5.444-15.369-8.207-23.175
		c-2.483-7-5.317-12.837-12.36-15.39c-7.141-2.588-13.586-2.462-19.185-1.41c6.994-5.731,16.252-2.258,18.057-2.041
		c-1.895-1.768-5.289-2.904-7.794-3.69c3.648-2.784,22.517-4.313,30,15.733c2.763,8.621,0.618,20.644,3.976,27.209
		c2.063,4.005,6.186,5.983,14.757,3.865C308.007,118.144,293.138,131.927,273.784,129.262z"/>
	<path d="M226.405,136.564c9.798-6.362,13.698,2.729,13.649,3.191C234.225,132.116,223.402,139.383,226.405,136.564z"/>
	<path d="M268.587,133.224c-0.869,3.978,4.3,11.574,9.545,12.423c5.242,0.863,18.133-3.662,21.283-7.12
		c4.104-4.503,3.184-14.66,0.406-16.035C292.857,119.518,270.186,125.888,268.587,133.224z"/>
	<path fill="#FFFFFF" d="M270.088,133.709c-0.821,3.745,3.465,9.988,8.404,10.794c4.937,0.8,17.318-3.107,20.236-6.411
		c2.918-3.311,2.953-12.703,0.344-14.001C292.5,121.286,271.595,126.792,270.088,133.709z"/>
	<path d="M275.137,134.747c-0.65,2.988,2.751,8.179,6.686,8.817c3.927,0.646,13.657-2.7,15.971-5.324
		c2.322-2.63,2.498-10.115,0.416-11.139C292.981,124.863,276.339,129.248,275.137,134.747z"/>
	<path fill="#FFFFFF" d="M287.505,131.345c0.084,1.36-2.006,2.609-4.7,2.792c-2.687,0.182-4.938-0.779-5.022-2.133
		c-0.098-1.36,2.006-2.609,4.693-2.792C285.155,129.023,287.407,129.983,287.505,131.345z"/>
	<path d="M215.377,97.009c3.366-13.552-11.714-21.822-19.472-8.039c-7.759,13.777,4.075,25.855,14.898,14.24
		C220.372,92.92,212.768,107.496,215.377,97.009z"/>
	<path fill="#FFFFFF" d="M214.809,96.932c1.852-11.096-10.317-19.008-17.48-6.881c-7.168,12.128,1.558,18.68,12.844,13.93
		C213.273,101.379,214.535,98.552,214.809,96.932z"/>
	<path d="M214.305,98.075c1.626-8.929-7.295-14.856-12.591-5.036c-5.303,9.82,3.549,16.589,10.248,9.42
		C212.859,101.491,213.869,100.488,214.305,98.075z"/>
	<path fill="#FFFFFF" d="M249.349,115.864c0.239,0.961-1.165,2.132-3.15,2.637c-1.97,0.491-3.774,0.12-4.005-0.828
		c-0.246-0.954,1.166-2.132,3.136-2.623C247.307,114.545,249.103,114.917,249.349,115.864z"/>
	<path fill="#FFFFFF" d="M278.638,115.485c0.197,0.785-0.966,1.761-2.602,2.167c-1.634,0.421-3.121,0.113-3.318-0.68
		c-0.196-0.779,0.968-1.753,2.602-2.167C276.956,114.391,278.435,114.692,278.638,115.485z"/>
	<path fill="#D6D6D6" d="M282.321,151.28c-37.463,20.328-56.506-23.148-79.787-3.83c-1.172-2.588-1.256-8.943,6.783-11.503
		c-5.534-0.757-10.262,2.56-10.262,2.56s0.189-1.845,1.073-3.886c4.419-1.445,9.771-2.398,13.972-0.736
		c-5.688,3.114-8.459,9.595-7.533,8.431c19.213-11.581,41.756,21.289,62.818,8.789C270.179,150.634,274.836,152.29,282.321,151.28z"
		/>
	<path d="M284.104,150.774c0,0-21.204,4.398-27.152-11.209c-21.233,10.515-21.38-3.739-21.38-3.739s-1.22,0.175-2.034-0.07
		c1.599,11.798,15.052,10.837,22.993,4.931c5.479,16.176,27.207,10.95,27.207,10.95L284.104,150.774z"/>
	<path fill="#6D6D6D" d="M284.517,149.933c0,0,2.461-2.146,3.697-5.106C288.234,148.958,284.517,149.933,284.517,149.933z"/>
	<path d="M301.332,120.879c11.602-11.792,21.029-9.982,21.029-9.982S309.802,112.904,301.332,120.879z"/>
	<path d="M256.952,130.608c-20.208-5.948-31.066-0.385-31.066-0.385S242.488,126.849,256.952,130.608z"/>
	<path d="M303.013,123.657c9.533-7.617,22.883-5.555,22.883-5.555S311.501,118.41,303.013,123.657z"/>
	<path d="M259.069,133.905c-9.876-4.643-20.754,0.947-20.754,0.947S250.625,131.232,259.069,133.905z"/>
	<path d="M306.353,127.381c4.166-1.087,9.539,0.695,9.539,0.695S302.199,128.476,306.353,127.381z"/>
	<path d="M234.604,84.643"/>
	<linearGradient id="SVGID_1_" gradientUnits="userSpaceOnUse" x1="249.0972" y1="122.5049" x2="236.5439" y2="98.8182">
		<stop  offset="0" style="stop-color:#FFFFFF;stop-opacity:0"/>
		<stop  offset="1" style="stop-color:#000000"/>
	</linearGradient>
	<path opacity="0.3" fill="url(#SVGID_1_)" d="M276.807,97.282c-39.011,4.174-51.308,32.351-65.891,31.214
		c0.863,0.436-3.879-8.606-3.879-8.606l33.726-21.324l29.129-9.975C269.892,88.592,276.295,93.881,276.807,97.282z"/>
	<path d="M239.437,157.725c2.456,0.429,21.114,18.954,26.41,23.716c14.322-13.489,30.202,12.414,14.048,13.256
		c0.274,2.328-0.154,5.05-3.072,6.278c3.347,4.595-5.83,11.833-17.218,1.557c-29.124-7.877-29.559-38.563-29.559-38.563
		S236.982,157.305,239.437,157.725z"/>
	<g>
		<defs>
			<path id="XMLID_103_" d="M239.437,157.725c10.901,10.957,20.735,20.735,26.031,25.491c14.313-13.481,28.223,11.39,12.603,10.415
				c0.94,2.301-0.542,6.965-3.542,6.734c4.539,4.489-4.082,10.15-13.895,0.603c-26.662-7.674-30.589-36.999-30.589-36.999
				S228.543,146.776,239.437,157.725z"/>
		</defs>
		<use xlink:href="#XMLID_103_"  overflow="visible" fill="#FFFFFF"/>
		<clipPath id="XMLID_29_">
			<use xlink:href="#XMLID_103_"  overflow="visible"/>
		</clipPath>
		<path clip-path="url(#XMLID_29_)" d="M252.014,166.347c-12.619,5.633-17.55,21.92-17.55,21.92l-11.335-19.339l7.464-17.473
			l7.743,1.249C238.336,152.704,251.039,164.789,252.014,166.347z"/>
		<path clip-path="url(#XMLID_29_)" fill="#EF2A25" d="M251.171,165.933c-14.645,3.668-16.623,24.738-16.623,24.738l-12.254-22.157
			l7.464-17.473l7.743,1.249C237.501,152.29,250.196,164.376,251.171,165.933z"/>
		<path clip-path="url(#XMLID_29_)" fill="#FFFFFF" d="M241.836,159.269c3.274,9.575,19.493,19.255,19.493,19.255
			S238.567,149.694,241.836,159.269z"/>
		<path opacity="0.3" clip-path="url(#XMLID_29_)" d="M231.132,170.429c0.673,24.282,27.685,30.742,27.685,30.742
			s-20.446-16.272-27.685-31.149"/>
	</g>
	<polygon fill="#EF2A25" points="240.054,156.835 239.276,158.014 230.788,164.13 227.884,164.13 227.884,154.078 234.562,151.896 	
		"/>
	<g>
		<g>
			<path d="M232.948,209.028c6.86,6.712,6.244,21.748-3.177,33.729c8.607,6.839,37.947,5.008,45.094,0.084
				c-7.239-13.797-14.693-11.23-14.693-11.23s11.698-15.077-2.764-25.978C251.166,208.796,242.221,209.224,232.948,209.028z"/>
			<g>
				<defs>
					<path id="XMLID_96_" d="M232.486,207.33c12.998,12.17,4.792,27.549,0.87,34.241c7.267,5.661,31.769,4.932,38.907,0.014
						c-8.289-11.118-19.24-6.972-19.24-6.972s18.559-12.882,4.385-28.98c-3.767,1.929-7.59,0.758-8.242-0.077
						C242.572,196.549,225.857,196.289,232.486,207.33z"/>
				</defs>
				<use xlink:href="#XMLID_96_"  overflow="visible" fill="#FFFFFF"/>
				<clipPath id="XMLID_30_">
					<use xlink:href="#XMLID_96_"  overflow="visible"/>
				</clipPath>
				<path clip-path="url(#XMLID_30_)" d="M241.183,224.785c5.444-13.127,20.489-12.938,22.812-11.219l-4.132-19.164l-25.525,4.56
					C235.571,185.825,237.739,233.083,241.183,224.785z"/>
				<g clip-path="url(#XMLID_30_)">
					<defs>
						<path id="XMLID_97_" d="M241.128,223.214c10.485-17.953,22.874-9.984,22.867-9.984l-4.006-19.999l-30.281,0.421
							C229.708,193.652,233.167,236.836,241.128,223.214z"/>
					</defs>
					<use xlink:href="#XMLID_97_"  overflow="visible" fill="#EF2A25"/>
					<clipPath id="XMLID_31_">
						<use xlink:href="#XMLID_97_"  overflow="visible"/>
					</clipPath>
				</g>
				<path clip-path="url(#XMLID_30_)" fill="#FFFFFF" d="M255.359,197.818c12.028,18.624-0.554,39.866,2.975,35.532l8.367-5.345
					l-1.193-15.855C265.509,212.149,248.226,186.779,255.359,197.818z"/>
			</g>
		</g>
		<path fill="#020000" d="M263.995,245.331l-1.657,0.414c-1.101-1.487-4.544-5.331-11.139-6.145
			C258.824,239.207,263.055,244.11,263.995,245.331z"/>
		<path fill="#020000" d="M270.6,243.963l-1.684,0.266c-0.975-1.578-4.087-5.688-10.582-7.056
			C265.959,237.425,269.766,242.651,270.6,243.963z"/>
	</g>
	<polygon fill="#EF2A25" points="236.301,192.691 243.765,201.171 233.93,208.417 230.964,206.327 228.67,199.754 	"/>
	<path d="M232.205,203.163c4.012-6.481,10.494-4.875,10.494-4.875S237.03,199.754,232.205,203.163z"/>
	<path d="M275.525,187.811"/>
	<path d="M192.208,202.251c-9.553,2.532-16.904,57.669-9.575,57.669c7.778,0,123.963,0,128.838,0s-5.395-32.646-12.604-34.427
		c-7.218-1.781-53.308,1.108-55.181,1.2C239.548,195.938,201.769,199.719,192.208,202.251z"/>
	<g>
		<defs>
			<path id="XMLID_94_" d="M193.373,203.774c-8.444,2.237-14.934,42.896-11.265,52.331c0.484,1.234,1.138,1.935,1.993,1.935
				c7.778,0,119.481,0.563,124.348,0.563c4.875,0-4.115-29.433-11.334-31.215c-7.218-1.782-52.67,0.75-54.543,0.842
				C238.167,198.156,202.934,201.241,193.373,203.774z"/>
		</defs>
		<use xlink:href="#XMLID_94_"  overflow="visible" fill="#EF2A25"/>
		<clipPath id="XMLID_32_">
			<use xlink:href="#XMLID_94_"  overflow="visible"/>
		</clipPath>
		<path opacity="0.3" clip-path="url(#XMLID_32_)" d="M267.303,224c11.546,18.854,10.031,39.813,10.031,39.813l46.408,0.295
			l-14.961-47.196C308.781,216.912,255.759,205.148,267.303,224z"/>
		<path clip-path="url(#XMLID_32_)" fill="#FFFFFF" d="M184.878,259.92c-5.239-6.58,3.255-52.155,9.547-54.491
			c8.36-3.114,25.764-0.274,23.394-0.47c20.432,3.557,23.125,25.297,23.125,25.297l59.53-1.305l-20.937-33.02l-103.49-3.949
			l-0.448,68.688C175.599,260.671,190.119,266.507,184.878,259.92z"/>
		<polygon clip-path="url(#XMLID_32_)" fill="#FF6464" points="312.744,256.651 310.736,262.487 181.062,262.487 180.271,256.477 		
			"/>
	</g>
	<path fill="#7A0A0A" d="M226.284,253.103c1.48,0,14.583,0.014,15.565-0.021C240.644,243.402,227.344,245.071,226.284,253.103z"/>
	<path opacity="0.3" d="M191.465,231.575c-0.646,9.561,2.455,5.885,2.455,5.885s2.512-2.861,3.985-2.798
		c4.048,0.168,5.681,0.785,6.004-2.805C204.266,227.83,192.208,220.489,191.465,231.575z"/>
	<path d="M192.181,215.046c-1.404,0.562-4.14,14.664-2.849,16.207c1.291,1.543,20.195,1.157,22.215,0.541
		c2.021-0.617,2.532-16.053,1.466-16.726C211.948,214.393,193.583,214.485,192.181,215.046z"/>
	<g>
		<defs>
			<path id="XMLID_95_" d="M193.043,216.063c-1.262,0.491-3.732,12.896-2.566,14.257c1.165,1.354,18.208,1.017,20.033,0.477
				c1.815-0.546,2.279-14.124,1.318-14.72C210.867,215.488,194.313,215.565,193.043,216.063z"/>
		</defs>
		<use xlink:href="#XMLID_95_"  overflow="visible" fill="#EF2A25"/>
		<clipPath id="XMLID_33_">
			<use xlink:href="#XMLID_95_"  overflow="visible"/>
		</clipPath>
		<path opacity="0.3" clip-path="url(#XMLID_33_)" d="M198.255,214.969c0.281,5.78,4.994,4.209,6.313,0.112
			C205.888,210.985,197.975,209.189,198.255,214.969z"/>
		<path clip-path="url(#XMLID_33_)" fill="#FF6464" d="M211.161,215.663c0,0,0.624,13.331-0.841,14.341
			c-1.473,1.01-21.324-0.617-21.324-0.617l0.272,4.545l21.612-0.561l4.488-7.653l-0.841-10.693L211.161,215.663z"/>
		<path clip-path="url(#XMLID_33_)" fill="#FFFFFF" d="M195.226,214.597l17.9-0.358l0.33,2.673c0,0-17.444-1.48-19.746,0
			c-2.3,1.48-2.02,15.842-2.02,15.842h-3.704l2.188-18.157H195.226z"/>
	</g>
	<g>
		<defs>
			<path id="XMLID_108_" d="M269.261,236.458l6.523,6.201l3.198,8.48l0.169,5.212l-1.214,5.26L270.6,272.56
				c0,0,4.622-0.511,4.925-0.63c0.195-0.084,3.696-1.62,6.157-3.023c1.179-0.667,2.042-2.637,2.042-2.637l3.227-6.229l0.295-9.813
				l-3.991-9.821l-7.772-4.538L269.261,236.458z"/>
		</defs>
		<use xlink:href="#XMLID_108_"  overflow="visible" fill="#211D1D"/>
		<clipPath id="XMLID_34_">
			<use xlink:href="#XMLID_108_"  overflow="visible"/>
		</clipPath>
		<path clip-path="url(#XMLID_34_)" fill="#777171" d="M270.6,270.021c-3.813,2.104-2.764,2.589-2.764,2.589l9.756,0.442
			c0,0,9.758-8.67,4.371-5.976c-5.388,2.693-10.992,2.35-10.992,2.35"/>
	</g>
	<g>
		<defs>
			<path id="XMLID_107_" d="M279.151,254.513c0,9.967-6.742,18.047-15.059,18.047c-8.319,0-15.06-8.08-15.06-18.047
				c0-9.975,6.74-18.055,15.06-18.055C272.409,236.458,279.151,244.538,279.151,254.513z"/>
		</defs>
		<use xlink:href="#XMLID_107_"  overflow="visible" fill="#7C7575"/>
		<clipPath id="XMLID_35_">
			<use xlink:href="#XMLID_107_"  overflow="visible"/>
		</clipPath>
		<polygon clip-path="url(#XMLID_35_)" fill="#A3A2A2" points="250.38,235.686 260.066,256.533 262.451,276.081 277.593,273.367 
			267.864,253.496 266.771,230.845 		"/>
	</g>
	<path fill="#4C4747" d="M285.969,246.769c-2.147-8.032-3.437-4.062-2.14,2.35c-0.462,0.28-3.696-8.382-1.585,0.504
		c-5.591-11.328-2.519-0.498-4.076-2.286c1.418,5.92,0.933,14.562-0.575,16.049c1.032-0.667-2.279,7.667,2.764-1.319
		c-2.055,7.696,5.746-6.67,2.679-0.119c-3.057,6.545,2.358,1.67,2.358,1.67l1.865-7.681
		C287.259,255.937,287.477,252.401,285.969,246.769z"/>
	<path d="M273.007,235.482c-2.709,0-5.248-0.238-7.491,0.027c1.716,0.667,3.126,0.772,4.425,1.88
		c0.785-0.161,1.569-0.295,2.391-0.295c7.849,0,14.204,7.738,14.204,17.284c0,9.54-6.354,17.277-14.204,17.277
		c-5.561,0-2.048-0.182-3.023-0.45c-1.95,1.108-7.574,0.758-10.198,1.011c3.677,2.07,9.623,1.059,13.151,0.716
		c8.9-0.871,15.663-7.674,15.663-18.554C287.926,243.493,281.949,235.482,273.007,235.482z"/>
	<path fill="#FFFFFF" d="M269.28,256.477c0,3.83-2.354,6.938-5.265,6.938c-2.904,0-5.267-3.107-5.267-6.938s2.363-6.937,5.267-6.937
		C266.927,249.54,269.28,252.646,269.28,256.477z"/>
	<path d="M269.261,255.466c0,3.83-2.356,6.93-5.266,6.93c-2.911,0-5.268-3.1-5.268-6.93s2.357-6.944,5.268-6.944
		C266.905,248.522,269.261,251.637,269.261,255.466z"/>
	<path opacity="0.2" fill="#D6D7D6" d="M268.292,255.466c0,3.226-1.667,5.836-3.724,5.836c-2.055,0-3.725-2.61-3.725-5.836
		c0-3.227,1.669-5.85,3.725-5.85C266.625,249.616,268.292,252.24,268.292,255.466z"/>
	<path d="M264.569,235.447c-8.943,0-16.195,8.046-16.195,18.932c0,10.879,7.252,18.896,16.195,18.896
		c8.942,0,14.583-7.883,14.583-18.763C279.151,243.626,273.511,235.447,264.569,235.447z M263.995,271.656
		c-7.85,0-14.204-7.737-14.204-17.277c0-9.546,6.354-17.284,14.204-17.284c7.839,0,14.202,7.738,14.202,17.284
		C278.196,263.918,271.834,271.656,263.995,271.656z"/>
	<g>
		<defs>
			<path id="XMLID_110_" d="M201.223,250.149l4.109,3.907l2.014,5.344l0.111,3.284l-0.765,3.317l-4.629,6.896
				c0,0,2.918-0.322,3.108-0.393c0.126-0.056,2.328-1.025,3.879-1.908c0.743-0.421,1.291-1.662,1.291-1.662l2.026-3.929l0.189-6.187
				l-2.518-6.179l-4.896-2.869L201.223,250.149z"/>
		</defs>
		<use xlink:href="#XMLID_110_"  overflow="visible" fill="#211D1D"/>
		<clipPath id="XMLID_36_">
			<use xlink:href="#XMLID_110_"  overflow="visible"/>
		</clipPath>
		<path clip-path="url(#XMLID_36_)" fill="#777171" d="M202.064,271.298c-2.399,1.333-1.739,1.635-1.739,1.635l6.151,0.28
			c0,0,6.145-5.465,2.75-3.767c-3.395,1.698-6.922,1.479-6.922,1.479"/>
	</g>
	<g>
		<defs>
			<path id="XMLID_109_" d="M207.458,261.526c0,6.279-4.251,11.371-9.498,11.371c-5.239,0-9.49-5.092-9.49-11.371
				c0-6.284,4.251-11.377,9.49-11.377C203.207,250.149,207.458,255.242,207.458,261.526z"/>
		</defs>
		<use xlink:href="#XMLID_109_"  overflow="visible" fill="#7C7575"/>
		<clipPath id="XMLID_37_">
			<use xlink:href="#XMLID_109_"  overflow="visible"/>
		</clipPath>
		<polygon clip-path="url(#XMLID_37_)" fill="#A3A2A2" points="189.318,249.651 195.429,262.796 196.93,275.12 206.476,273.41 
			200.338,260.881 199.651,246.607 		"/>
	</g>
	<path fill="#4C4747" d="M211.75,256.651c-1.354-5.063-2.16-2.56-1.346,1.48c-0.294,0.176-2.328-5.289-1.003,0.315
		c-3.514-7.14-1.585-0.315-2.568-1.438c0.898,3.725,0.589,9.175-0.358,10.108c0.653-0.42-1.438,4.833,1.74-0.834
		c-1.291,4.854,3.619-4.201,1.691-0.071c-1.93,4.125,1.48,1.053,1.48,1.053l1.178-4.84
		C212.564,262.425,212.704,260.194,211.75,256.651z"/>
	<path d="M203.579,249.525c-1.704,0-3.303-0.147-4.72,0.021c1.087,0.42,1.978,0.484,2.792,1.192c0.49-0.105,0.995-0.189,1.508-0.189
		c4.944,0,8.958,4.883,8.958,10.894c0,6.012-4.013,10.886-8.958,10.886c-3.507,0-1.291-0.112-1.909-0.28
		c-1.228,0.695-4.77,0.477-6.425,0.638c2.315,1.298,6.061,0.667,8.292,0.45c5.611-0.547,9.869-4.84,9.869-11.693
		C212.986,254.582,209.219,249.525,203.579,249.525z"/>
	<path fill="#FFFFFF" d="M201.286,263c0,2.414-1.488,4.371-3.318,4.371c-1.838,0-3.326-1.957-3.326-4.371
		c0-2.413,1.488-4.37,3.326-4.37C199.798,258.63,201.286,260.586,201.286,263z"/>
	<path d="M201.223,262.123c0,2.414-1.488,4.371-3.318,4.371c-1.838,0-3.326-1.957-3.326-4.371c0-2.413,1.488-4.37,3.326-4.37
		C199.735,257.752,201.223,259.71,201.223,262.123z"/>
	<path opacity="0.2" fill="#D6D7D6" d="M200.612,262.123c0,2.035-1.053,3.684-2.35,3.684c-1.291,0-2.344-1.649-2.344-3.684
		c0-2.034,1.053-3.675,2.344-3.675C199.56,258.447,200.612,260.088,200.612,262.123z"/>
	<path d="M198.263,249.504c-5.641,0-10.206,5.078-10.206,11.938c0,6.854,4.565,11.91,10.206,11.91c5.639,0,9.195-4.973,9.195-11.826
		C207.458,254.673,203.902,249.504,198.263,249.504z M197.905,272.329c-4.952,0-8.958-4.875-8.958-10.886
		c0-6.011,4.005-10.894,8.958-10.894c4.944,0,8.95,4.883,8.95,10.894C206.855,267.454,202.849,272.329,197.905,272.329z"/>
	<path fill="#FFFFFF" d="M275.959,237.671c-7.667-2.287-14.995-0.176-14.995-0.176S267.5,237.243,275.959,237.671z"/>
	<path fill="#FFFFFF" d="M206.238,251.215c-5.703-2.293-11.153-0.175-11.153-0.175S199.938,250.788,206.238,251.215z"/>
	<path d="M322.541,261.007c0,0,82.543-4.019,79.1-1.662c-4.055,7.841-78.277,4.614-78.277,4.614L322.541,261.007z"/>
	<path fill="#2D2A2A" d="M323.714,261.919c0,0,75.928-2.763,72.531-1.592c-3.99,3.878-72.531,2.827-72.531,2.827V261.919z"/>
	<path d="M296.623,264.858l-9.989-29.173c0,0,9.036-1.305,11.391-0.239c2.359,1.067,11.281,26.382,11.281,26.382L296.623,264.858z"
		/>
	<g>
		<defs>
			<path id="XMLID_106_" d="M297.572,264.578l-9.646-28.064c0,0,6.789-1.291,9.146-0.225c2.357,1.066,11.279,26.381,11.279,26.381
				L297.572,264.578z"/>
		</defs>
		<use xlink:href="#XMLID_106_"  overflow="visible" fill="#352626"/>
		<clipPath id="XMLID_38_">
			<use xlink:href="#XMLID_106_"  overflow="visible"/>
		</clipPath>
		<polygon clip-path="url(#XMLID_38_)" fill="#605050" points="289.86,235.686 298.755,263.905 299.597,265.561 295.277,265.869 
			286.241,235.279 		"/>
	</g>
	<polygon points="303.246,1.396 304.423,262.348 311.943,262.348 313.269,0 	"/>
	<g>
		<defs>
			<polygon id="XMLID_104_" points="310.73,263.512 305.568,263.512 304.423,2.687 312.279,1.396 			"/>
		</defs>
		<use xlink:href="#XMLID_104_"  overflow="visible" fill="#3F3B3B"/>
		<clipPath id="XMLID_39_">
			<use xlink:href="#XMLID_104_"  overflow="visible"/>
		</clipPath>
		<polygon clip-path="url(#XMLID_39_)" fill="#6D6A6A" points="308.351,-3.332 308.351,268.927 298.414,267.56 298.691,-3.058 		"/>
	</g>
	<polygon points="342.253,1.396 343.433,262.348 350.953,262.348 352.279,0 	"/>
	<g>
		<defs>
			<polygon id="XMLID_105_" points="349.748,263.512 344.583,263.512 343.433,2.687 351.289,1.396 			"/>
		</defs>
		<use xlink:href="#XMLID_105_"  overflow="visible" fill="#3F3B3B"/>
		<clipPath id="XMLID_40_">
			<use xlink:href="#XMLID_105_"  overflow="visible"/>
		</clipPath>
		<polygon clip-path="url(#XMLID_40_)" fill="#6D6A6A" points="347.359,-3.332 347.359,268.927 337.427,267.56 337.701,-3.058 		"/>
	</g>
	<g>
		<polygon fill="#2E3A39" points="412.519,260.728 310.757,260.728 309.964,240.224 411.964,240.224 		"/>
		<g>
			<defs>
				<rect id="XMLID_131_" x="311.71" y="241.549" width="99.209" height="18.188"/>
			</defs>
			<use xlink:href="#XMLID_131_"  overflow="visible" fill="#748987"/>
			<clipPath id="XMLID_41_">
				<use xlink:href="#XMLID_131_"  overflow="visible"/>
			</clipPath>
			<rect x="368.679" y="239.754" clip-path="url(#XMLID_41_)" fill="#9DB2AE" width="42.816" height="23.597"/>
			<path clip-path="url(#XMLID_41_)" fill="#FFFFFF" d="M367.164,240.393c2.357,10.22-0.227,21.274-0.227,21.274l3.201-0.393
				c0,0-2.527-17.515-0.449-20.517C371.765,237.755,364.806,230.179,367.164,240.393z"/>
			<polyline clip-path="url(#XMLID_41_)" fill="#FFFFFF" points="308.736,243.233 309.187,243.233 413.558,242.377 414.544,238.709 
				306.646,235.756 			"/>
			<path opacity="0.9" clip-path="url(#XMLID_41_)" fill="#99ADAA" d="M311.732,235.903c51.619,29.601-14.363,37.604,13.617,27.693
				c-23.641,8.375,39.512,0.449,39.512,0.449s-32.477-13.173-14.518-26.942c17.963-13.77-17.51-4.946-31.428-1.501"/>
		</g>
		<circle fill="#3F4F4B" cx="405.519" cy="256.701" r="1.375"/>
		<circle fill="#3F4F4B" cx="399.149" cy="256.701" r="1.374"/>
	</g>
	<g>
		<polygon fill="#2E3A39" points="410.099,241.396 308.335,241.396 307.552,220.903 409.544,220.903 		"/>
		<g>
			<defs>
				<rect id="XMLID_130_" x="309.291" y="222.225" width="99.209" height="18.181"/>
			</defs>
			<use xlink:href="#XMLID_130_"  overflow="visible" fill="#748987"/>
			<clipPath id="XMLID_42_">
				<use xlink:href="#XMLID_130_"  overflow="visible"/>
			</clipPath>
			<rect x="366.257" y="220.433" clip-path="url(#XMLID_42_)" fill="#9DB2AE" width="42.816" height="23.586"/>
			<path clip-path="url(#XMLID_42_)" fill="#FFFFFF" d="M364.744,221.071c2.355,10.21-0.227,21.264-0.227,21.264l3.199-0.392
				c0,0-2.525-17.508-0.447-20.507C369.345,218.434,362.384,210.858,364.744,221.071z"/>
			<polyline clip-path="url(#XMLID_42_)" fill="#FFFFFF" points="306.318,223.908 306.773,223.908 411.136,223.053 412.126,219.388 
				304.228,216.435 			"/>
			<path opacity="0.9" clip-path="url(#XMLID_42_)" fill="#99ADAA" d="M316.496,216.582c51.621,29.59-17.957,37.601,10.025,27.682
				c-23.641,8.382,35.92,0.449,35.92,0.449s-32.479-13.173-14.52-26.932c17.965-13.769-17.508-4.945-31.426-1.501"/>
		</g>
		<path fill="#3F4F4B" d="M404.474,237.369c0,0.757-0.619,1.375-1.375,1.375c-0.758,0-1.375-0.618-1.375-1.375
			s0.617-1.375,1.375-1.375C403.855,235.995,404.474,236.612,404.474,237.369z"/>
		<circle fill="#3F4F4B" cx="396.729" cy="237.369" r="1.374"/>
	</g>
	<g>
		<polygon fill="#2E3A39" points="412.519,222.484 310.757,222.484 309.964,201.992 411.964,201.992 		"/>
		<g>
			<defs>
				<rect id="XMLID_129_" x="311.71" y="203.318" width="99.209" height="18.181"/>
			</defs>
			<use xlink:href="#XMLID_129_"  overflow="visible" fill="#748987"/>
			<clipPath id="XMLID_43_">
				<use xlink:href="#XMLID_129_"  overflow="visible"/>
			</clipPath>
			<rect x="368.679" y="201.522" clip-path="url(#XMLID_43_)" fill="#9DB2AE" width="42.816" height="23.586"/>
			<path clip-path="url(#XMLID_43_)" fill="#FFFFFF" d="M367.164,202.16c2.357,10.213-0.227,21.265-0.227,21.265l3.201-0.393
				c0,0-2.527-17.504-0.449-20.506C371.765,199.523,364.806,191.947,367.164,202.16z"/>
			<polyline clip-path="url(#XMLID_43_)" fill="#FFFFFF" points="308.736,205.001 309.187,205.001 413.558,204.145 414.544,200.477 
				306.646,197.524 			"/>
			<path opacity="0.9" clip-path="url(#XMLID_43_)" fill="#99ADAA" d="M315.324,197.671c51.621,29.589-17.955,37.593,10.025,27.682
				c-23.641,8.375,39.512,0.449,39.512,0.449s-32.477-13.17-14.518-26.932c17.963-13.768-17.51-4.945-31.428-1.501"/>
		</g>
		<circle fill="#3F4F4B" cx="405.519" cy="218.462" r="1.375"/>
		<circle fill="#3F4F4B" cx="399.149" cy="218.462" r="1.374"/>
	</g>
	<g>
		<polygon fill="#2E3A39" points="410.099,203.163 308.335,203.163 307.552,182.669 409.544,182.669 		"/>
		<g>
			<defs>
				<rect id="XMLID_128_" x="309.291" y="183.995" width="99.209" height="18.18"/>
			</defs>
			<use xlink:href="#XMLID_128_"  overflow="visible" fill="#748987"/>
			<clipPath id="XMLID_44_">
				<use xlink:href="#XMLID_128_"  overflow="visible"/>
			</clipPath>
			<rect x="366.257" y="182.199" clip-path="url(#XMLID_44_)" fill="#9DB2AE" width="42.816" height="23.588"/>
			<path clip-path="url(#XMLID_44_)" fill="#FFFFFF" d="M364.744,182.837c2.355,10.211-0.227,21.266-0.227,21.266l3.199-0.393
				c0,0-2.525-17.506-0.447-20.508C369.345,180.2,362.384,172.625,364.744,182.837z"/>
			<polyline clip-path="url(#XMLID_44_)" fill="#FFFFFF" points="306.318,185.678 306.773,185.678 411.136,184.823 412.126,181.154 
				304.228,178.201 			"/>
			<path opacity="0.9" clip-path="url(#XMLID_44_)" fill="#99ADAA" d="M316.496,178.348c51.621,29.593-17.957,37.596,10.025,27.685
				c-23.641,8.375,35.92,0.449,35.92,0.449s-32.479-13.173-14.52-26.933c17.965-13.77-17.508-4.945-31.426-1.501"/>
		</g>
		<path fill="#3F4F4B" d="M404.474,199.137c0,0.758-0.619,1.375-1.375,1.375c-0.758,0-1.375-0.617-1.375-1.375
			c0-0.757,0.617-1.375,1.375-1.375C403.855,197.762,404.474,198.38,404.474,199.137z"/>
		<circle fill="#3F4F4B" cx="396.729" cy="199.137" r="1.374"/>
	</g>
	<g>
		<polygon fill="#2E3A39" points="410.099,183.315 308.335,183.315 307.552,162.818 409.544,162.818 		"/>
		<g>
			<defs>
				<rect id="XMLID_127_" x="309.291" y="164.144" width="99.209" height="18.181"/>
			</defs>
			<use xlink:href="#XMLID_127_"  overflow="visible" fill="#748987"/>
			<clipPath id="XMLID_45_">
				<use xlink:href="#XMLID_127_"  overflow="visible"/>
			</clipPath>
			<rect x="366.257" y="162.349" clip-path="url(#XMLID_45_)" fill="#9DB2AE" width="42.816" height="23.589"/>
			<path clip-path="url(#XMLID_45_)" fill="#FFFFFF" d="M364.744,162.987c2.355,10.213-0.227,21.267-0.227,21.267l3.199-0.393
				c0,0-2.525-17.508-0.447-20.51C369.345,160.35,362.384,152.773,364.744,162.987z"/>
			<polyline clip-path="url(#XMLID_45_)" fill="#FFFFFF" points="306.318,165.828 306.773,165.828 411.136,164.972 412.126,161.303 
				304.228,158.35 			"/>
			<path opacity="0.9" clip-path="url(#XMLID_45_)" fill="#99ADAA" d="M312.904,158.497c51.621,29.594-21.548,37.596,6.432,27.686
				c-23.637,8.374,43.105,0.449,43.105,0.449s-32.479-13.173-14.52-26.936c17.965-13.769-17.508-4.945-31.426-1.5"/>
		</g>
		<path fill="#3F4F4B" d="M404.474,179.288c0,0.757-0.619,1.375-1.375,1.375c-0.758,0-1.375-0.618-1.375-1.375
			c0-0.758,0.617-1.375,1.375-1.375C403.855,177.914,404.474,178.53,404.474,179.288z"/>
		<circle fill="#3F4F4B" cx="396.729" cy="179.288" r="1.374"/>
	</g>
	<path d="M250.92,202.027c1.233,2.377-0.331,5.646-3.501,7.288c-3.163,1.641-6.733,1.038-7.969-1.34
		c-1.235-2.384,0.329-5.646,3.5-7.288C246.114,199.039,249.685,199.642,250.92,202.027z"/>
	<path fill="#FFE54A" d="M249.923,202.939c0.968,1.859-0.252,4.405-2.722,5.681c-2.468,1.284-5.246,0.813-6.214-1.045
		c-0.96-1.851,0.259-4.398,2.728-5.682C246.185,200.617,248.963,201.087,249.923,202.939z"/>
	<polygon points="245.805,207.316 254.413,226.448 256.026,226.448 247.454,206.607 	"/>
	<polygon points="281.261,197.391 294.267,226.083 295.878,226.083 282.902,196.682 	"/>
	<path d="M275.525,187.811"/>
	<path d="M278.196,193.673c-1.647-4.951-6.467-3.865-5.877-5.918c0.637-3.17,1.5-0.007,2.258,0.379
		c0.1,0.049,0.19,0.105,0.288,0.161c2.168,1.261,4.174,4.165,4.567,5.427C279.971,195.49,278.196,193.673,278.196,193.673"/>
	<path d="M274.97,200.855c-1.895-2.904-6.131-2.294-5.661-4.804c0.568-3.514,1.291,0.154,2.244,0.715
		c2.168,1.284,4.785,3.739,4.785,3.739S276.863,203.759,274.97,200.855z"/>
	<path d="M266.225,182.543c-5.226,4.615-4.329,13.276-5.709,9.552c-1.867-5.042,4.404-10.036,4.404-10.036
		S270.803,178.495,266.225,182.543z"/>
	<path d="M295.55,261.26c0,0,82.592-3.381,79.119-0.898c-4.152,8.333-78.326,4.069-78.326,4.069L295.55,261.26z"/>
	<path fill="#6D6A6A" d="M296.714,262.249c0,0,75.955-2.111,72.545-0.897c-4.041,4.096-72.559,2.216-72.559,2.216L296.714,262.249z"
		/>
	<path fill="#8C5000" d="M201.327,125.403c0,0,55.085-42.1,93.298-38.397c-0.674-4.77-10.369-9.827-18.442-9.953
		c-18.754-51.492-104.954-19.661-82.9,24.558C187.032,109.333,201.327,125.403,201.327,125.403z"/>
	<g>
		<defs>
			<path id="XMLID_92_" d="M201.594,121.609c0,0,51.304-39.105,89.27-36.376c-2.299-2.996-8.191-5.97-16.272-6.096
				c-18.755-51.493-100.215-20.047-78.884,22.615C189.458,109.474,201.594,121.609,201.594,121.609z"/>
		</defs>
		<use xlink:href="#XMLID_92_"  overflow="visible" fill="#FFC200"/>
		<clipPath id="XMLID_46_">
			<use xlink:href="#XMLID_92_"  overflow="visible"/>
		</clipPath>
		<path clip-path="url(#XMLID_46_)" fill="#FFE54A" d="M200.022,135.735c0,0,25.231-19.24,10.656-18.63
			c-14.577,0.61-10.788-17.29-9-20.081c-21.148-30.429,52.756-68.293,62.282-17.733c-53.809,13.334,13.872,11.251,13.872,11.251
			l25.295-0.667l-19.115-43.272l-106.155,8.024L200.022,135.735z"/>
		<path clip-path="url(#XMLID_46_)" fill="#FFFA50" d="M198.326,121.609c0,0,50.195-38.383,96.299-38.754
			c46.107-0.372,4.244,6.221,4.244,6.221l-98.776,37.955L198.326,121.609z"/>
	</g>
	<path fill="#C17200" d="M219.691,97.282c37.485-23.947,53.784-18.041,53.784-18.041S252.414,80.714,219.691,97.282z"/>
	<path fill="#FFFFFF" d="M216.689,64.462c1.929,2.034,0.14,6.867-3.991,10.795c-4.146,3.935-9.063,5.471-10.999,3.444
		c-1.93-2.034-0.141-6.874,3.998-10.81C209.836,63.971,214.761,62.435,216.689,64.462z"/>
	<path fill="#FFE54A" d="M211.161,90.956l8.025,16.771c0,0-3.311,6.909-8.754-12.984c-3.535,3.227-11.376,7.919-11.376,7.919
		s-0.268-3.837,0-3.76C199.322,98.98,211.161,90.956,211.161,90.956z"/>
	<path fill="#C17200" d="M196.978,100.628c1.74-4.342,14.127-10.753,14.127-10.753s9.258,14.576,8.144,17.711
		c-1.109,3.135-8.473-16.083-8.473-16.083S195.239,104.978,196.978,100.628z"/>
	<path fill="#FFE54A" d="M217.706,58.332c20.896,3.893,32.077,19.808,32.077,19.808s-7.736-17.494-28.353-21.211
		C218.667,56.866,218.611,57.764,217.706,58.332z"/>
	<path fill="#FFE54A" d="M233.741,53.807c14.204,2.939,26.577,22.812,26.577,22.812s-4.665-17.326-21.042-23.204
		C236.533,53.071,234.702,53.331,233.741,53.807z"/>
	<path fill="#C17200" d="M219.25,57.174c19.345-3.149,30.856,20.966,30.856,20.966S236.421,56.845,219.25,57.174z"/>
	<path fill="#C17200" d="M240.762,53.807c15.404,5.485,19.556,22.812,19.556,22.812S248.913,56.74,240.762,53.807z"/>
	<linearGradient id="SVGID_2_" gradientUnits="userSpaceOnUse" x1="37.877" y1="211.3174" x2="140.6456" y2="275.5344">
		<stop  offset="0" style="stop-color:#FFFFFF;stop-opacity:0"/>
		<stop  offset="0.4355" style="stop-color:#FFFFFF"/>
	</linearGradient>
	<path opacity="0.8" fill="url(#SVGID_2_)" d="M150.585,240.266c1.381-0.084-50.925,0.499-86.369-0.287
		c-14.562-0.323-35.248-5.725-27.524-12.353c-7.821,0-1.024-0.098-8.073,0.091c-11.735,10.15-1.6,22.151,13.124,24.986
		c25.743,4.944,81.219,3.948,111.044,3.401C140.274,249.293,150.585,240.266,150.585,240.266z"/>
	<path d="M152.788,248.985c0.126-0.52-48.245-0.632-81.802-1.081C99.885,250.248,152.662,249.504,152.788,248.985z"/>
	<path d="M141.733,256.104c-0.042,0.618-54.2,2.385-88.852-1.207c-17.572-1.824-26.529-6.116-27.953-12.5
		c2.89,4.89,12.275,10.248,23.534,11.405C85.646,257.634,141.782,255.495,141.733,256.104z"/>
	<path d="M154.906,239.979c0.126-0.597-72.893-0.197-100.019-0.821C76.401,242.027,154.78,240.574,154.906,239.979z"/>
	<path fill="#89796F" d="M128.616,234.128c0.147-4.713,8.291-1.424,6.313,1.943c5.625-0.26,2.371,8.74-1.368,6.425
		c0.358,5.148-10.24,0.834-7.533-3.353C122.016,238.113,126.526,232.473,128.616,234.128z"/>
	<path fill="#BFAEA1" d="M128.996,235.63c0.203-4.734,6.446-1.901,4.65,1.157c5.12-0.232,2.75,6.657-0.66,4.545
		c0.33,4.7-8.466,1.445-6.004-2.357C123.327,238.029,126.744,233.981,128.996,235.63z"/>
	<path fill="#89796F" d="M84.622,230.046c-2.806-2.75,3.809-5.885,4.756-2.771c3.016-3.591,6.691,3.48,3.163,4.469
		c3.353,2.686-5.268,6.741-6.306,2.721C83.338,236.338,82.426,230.39,84.622,230.046z"/>
	<path fill="#BFAEA1" d="M85.758,230.664c-2.784-2.798,2.476-5.029,3.332-2.196c2.75-3.269,5.633,2.077,2.414,2.968
		c3.064,2.454-3.9,6.003-4.826,2.349C84.033,235.482,83.479,231.112,85.758,230.664z"/>
	<path d="M62.855,248.298c0,0-38.593-3.753-34.531-17.579C21.436,245.997,62.855,248.298,62.855,248.298z"/>
	<path d="M35.535,229.008c-4.384,7.674,15.467,9.378,15.467,9.378S33.95,236.155,35.535,229.008z"/>
</g>
</svg>
